<?xml version="1.0" encoding="UTF-8" standalone="no"?>
<!-- Created with Inkscape (http://www.inkscape.org/) -->

<svg
   width="210mm"
   height="297mm"
   viewBox="0 0 210 297"
   version="1.1"
   id="svg1"
   xml:space="preserve"
   xmlns="http://www.w3.org/2000/svg"
   xmlns:svg="http://www.w3.org/2000/svg"><defs
     id="defs1" /><g
     id="layer1"><path
       style="fill:#000000"
       d="m 88.02324,217.38176 c -14.001246,-1.79884 -24.072172,-8.75283 -26.516386,-18.30961 -0.562328,-2.19869 -0.662921,-5.26834 -0.245873,-7.50297 1.118183,-5.99145 7.37933,-10.85263 13.520185,-10.49715 7.510284,0.43477 11.012736,8.35844 6.441061,14.57176 -0.545507,0.7414 -1.054504,1.19065 -1.227706,1.0836 -0.171925,-0.10625 -0.222325,-0.0639 -0.120312,0.1012 0.09656,0.15623 -0.189478,0.87126 -0.635627,1.58897 -2.77089,4.45743 0.593414,10.66847 7.042794,13.00213 8.672748,3.13817 18.501974,0.3353 23.529004,-6.70946 2.40683,-3.37286 3.92056,-7.63026 4.82443,-13.56879 0.38296,-2.51612 0.44479,-7.28515 0.52847,-40.76014 0.063,-25.18566 0.004,-38.40348 -0.17667,-39.37895 -0.4277,-2.31366 -1.51897,-4.44692 -2.96836,-5.80264 -1.6569,-1.54984 -4.13319,-2.71173 -6.25121,-2.93311 l -1.64496,-0.17193 v -1.28523 -1.285221 h 18.78542 18.78541 v 1.289101 c 0,1.28472 -0.003,1.28965 -0.99218,1.44951 -2.1365,0.3454 -4.00642,2.34044 -5.14139,5.48541 l -0.61272,1.69785 -0.1618,36.64479 c -0.17602,39.86601 -0.15164,39.2216 -1.69857,44.89988 -3.11869,11.44767 -11.26619,20.12345 -22.757,24.23255 -6.26055,2.23877 -15.056198,3.08989 -22.30601,2.15845 z m 3.1833,-0.34664 c -0.322091,-0.20425 -1.636541,-0.10206 -1.636541,0.12723 0,0.0558 0.446484,0.0996 0.992187,0.0974 0.632451,-0.003 0.866074,-0.084 0.644354,-0.22462 z m -5.27721,-1.09424 c 0.159104,0 0.212782,-0.0765 0.119285,-0.17 -0.27064,-0.27064 -0.99091,0.46245 -0.781389,0.79529 0.123968,0.19694 0.220988,0.14093 0.28107,-0.16227 0.05047,-0.25466 0.22193,-0.46302 0.381034,-0.46302 z m 0.658594,0.6339 c -0.08792,-0.0879 -0.316122,-0.0973 -0.507118,-0.0209 -0.211066,0.0845 -0.148372,0.14716 0.159853,0.15985 0.278915,0.0115 0.435184,-0.051 0.347265,-0.13896 z m 4.452133,-0.35771 c 0.139136,-0.13913 1.978651,-0.2716 4.087812,-0.29437 8.236531,-0.0889 14.796881,-2.04987 21.150731,-6.32219 7.14881,-4.80685 11.73093,-11.60484 13.73865,-20.38255 1.24692,-5.45144 1.29252,-6.96284 1.3293,-44.05312 0.0206,-20.73314 0.13438,-34.48999 0.2935,-35.47401 0.36257,-2.2421 1.17252,-4.46987 2.06763,-5.68704 1.00288,-1.3637 2.68935,-2.68572 3.18399,-2.49591 0.21632,0.083 0.50336,-0.002 0.63786,-0.18876 0.17111,-0.23768 0.19643,-0.1918 0.0843,0.15279 -0.11758,0.36134 -0.056,0.45248 0.23115,0.34228 0.21527,-0.0826 0.44951,-0.0562 0.52053,0.0587 0.13465,0.21787 2.5e-4,0.24522 -1.63353,0.33247 -0.54571,0.0291 -0.78383,0.10137 -0.52917,0.16051 0.54102,0.12564 0.53656,0.10543 0.21169,0.95991 -0.17803,0.46826 -0.15874,0.70478 0.0661,0.81098 0.24295,0.11472 0.23983,0.18615 -0.0132,0.30426 -0.1819,0.0849 -0.32946,0.29325 -0.32791,0.46302 0.002,0.16977 0.52443,-0.25687 1.16194,-0.94809 0.63752,-0.69122 1.29812,-1.25677 1.468,-1.25677 0.16989,0 0.24222,-0.10788 0.16073,-0.23972 -0.0815,-0.13185 0.44727,-0.32161 1.17501,-0.4217 1.3134,-0.18064 1.32317,-0.18913 1.32313,-1.14935 l -4e-5,-0.967356 -14.28746,-0.0015 c -7.8581,-8.45e-4 -14.28754,0.05869 -14.28765,0.132293 -1e-4,0.0736 -0.29697,0.15095 -0.6597,0.17187 -0.36274,0.0209 -0.60435,-0.0512 -0.53692,-0.16033 0.11056,-0.178879 -6.98417,-0.132159 -7.14118,0.047 -0.0363,0.0414 -0.007,0.46222 0.065,0.93516 0.10968,0.72022 0.24455,0.8599 0.83028,0.8599 0.38463,0 1.10069,0.11511 1.59126,0.25581 0.59165,0.16968 1.06332,0.16408 1.40097,-0.0166 0.27996,-0.14983 0.77077,-0.22342 1.09068,-0.16353 0.48892,0.0915 0.44376,0.1418 -0.2832,0.31527 l -0.86487,0.20637 1.32955,0.61599 c 1.15392,0.53462 4.62926,3.59756 4.37286,3.85396 -0.0509,0.0509 0.46325,0.0697 1.14244,0.0418 l 1.23489,-0.0507 -1.08773,0.27879 -1.08772,0.2788 0.5161,1.35824 c 0.28385,0.74704 0.65426,1.44616 0.82313,1.55361 0.20094,0.12785 0.20809,0.19677 0.0207,0.19942 -0.18372,0.003 -0.24991,0.54932 -0.18467,1.5254 0.15666,2.3441 0.27504,2.7171 0.80445,2.53476 0.39067,-0.13456 0.38414,-0.0992 -0.0431,0.23378 -0.2769,0.21578 -0.4187,0.52946 -0.31512,0.69705 0.10358,0.1676 0.0782,0.30473 -0.0563,0.30473 -0.14368,0 -0.15987,0.46372 -0.0392,1.12346 0.13966,0.76378 0.10711,1.19466 -0.10168,1.34586 -0.18645,0.13504 -0.0732,0.17115 0.28821,0.0919 0.32742,-0.0718 0.59531,-0.0353 0.59531,0.081 0,0.11633 0.17859,0.28004 0.39687,0.3638 0.24604,0.0944 0.39688,-0.001 0.39688,-0.25189 0,-0.23814 -0.12549,-0.32663 -0.30547,-0.2154 -0.19533,0.12073 -0.23338,0.0722 -0.10553,-0.13471 0.10997,-0.17793 0.35833,-0.26272 0.55192,-0.18844 0.23513,0.0902 0.31913,-0.0355 0.25301,-0.37883 -0.0552,-0.28653 0.0467,-0.51391 0.23028,-0.51391 0.19337,0 0.33982,0.37311 0.35487,0.90409 0.0212,0.74848 -0.0857,0.93203 -0.62119,1.06643 -0.35574,0.0893 -0.79016,0.0727 -0.96537,-0.0367 -0.64436,-0.40271 -0.90167,-0.26981 -0.92289,0.47668 -0.012,0.4205 0.0964,0.76455 0.24076,0.76455 0.14438,0 0.18892,-0.11906 0.099,-0.26458 -0.0899,-0.14552 0.0291,-0.26459 0.26459,-0.26459 0.23545,0 0.36233,0.10642 0.28194,0.23649 -0.0804,0.13007 0.14902,0.21936 0.50978,0.19844 0.36077,-0.0209 0.62787,-0.17907 0.59356,-0.35143 -0.0343,-0.17236 0.0534,-0.29142 0.19488,-0.26458 0.15475,0.0294 0.27819,2.23631 0.3098,5.5389 0.0449,4.6942 -0.004,5.4901 -0.33902,5.4901 -0.21535,0 -0.32567,-0.10659 -0.24516,-0.23686 0.0805,-0.13027 -0.0315,-0.30513 -0.24897,-0.38857 -0.21745,-0.0834 -0.39536,-0.0179 -0.39536,0.14558 0,0.1635 -0.24336,0.077 -0.54081,-0.19215 -0.69238,-0.62659 -0.59677,-1.61345 0.14394,-1.48566 0.72297,0.12474 0.81413,0.25874 0.43436,0.6385 -0.25575,0.25576 -0.38058,0.24088 -0.59189,-0.0705 -0.21856,-0.3221 -0.25236,-0.29738 -0.18383,0.1345 0.0586,0.36961 0.2935,0.53275 0.77885,0.54106 0.46314,0.008 0.65104,-0.10238 0.56341,-0.33073 -0.0723,-0.18844 0.009,-0.34262 0.18032,-0.34262 0.19521,0 0.15633,-0.15545 -0.10399,-0.41577 -0.49703,-0.49704 -0.50517,-0.55608 -0.11031,-0.80012 0.20212,-0.12492 0.23305,-0.0716 0.0914,0.15756 -0.13487,0.21823 -0.11025,0.28219 0.0666,0.17291 0.15435,-0.0954 0.21576,-0.42151 0.13647,-0.72471 -0.10961,-0.41916 -0.1978,-0.46665 -0.36799,-0.19817 -0.17149,0.27055 -0.22477,0.24485 -0.22787,-0.10993 -0.002,-0.25466 0.1169,-0.46302 0.26473,-0.46302 0.14784,0 0.2425,-0.34496 0.21038,-0.76659 -0.0535,-0.70174 -0.11539,-0.74613 -0.73181,-0.52479 l -0.67339,0.24181 0.66145,-0.55651 c 0.36381,-0.30608 0.51263,-0.47961 0.33073,-0.38564 -0.45291,0.23399 -0.4161,-0.0774 0.0662,-0.55962 0.45789,-0.45789 0.52823,-1.15283 0.11668,-1.15283 -0.15411,0 -0.20648,0.11929 -0.11637,0.26508 0.0901,0.1458 -0.14875,0.38392 -0.53078,0.52917 -0.8671,0.32967 -0.92474,0.32867 -0.92474,-0.0161 0,-0.15411 0.11084,-0.2117 0.2463,-0.12798 0.13547,0.0837 0.32109,0.0312 0.41249,-0.11667 0.0917,-0.14839 -0.0743,-0.2689 -0.37053,-0.2689 -0.44486,0 -0.5307,0.16041 -0.5015,0.93718 0.0194,0.51545 0.13482,0.99873 0.25653,1.07395 0.12171,0.0752 0.22129,0.25583 0.22129,0.40135 0,0.14552 -0.11906,0.191 -0.26458,0.10106 -0.14552,-0.0899 -0.26458,0.0689 -0.26458,0.35295 0,0.5069 0.65103,0.95711 1.03811,0.71788 0.10814,-0.0668 0.19661,0.0405 0.19661,0.2385 0,0.19801 -0.15875,0.29909 -0.35278,0.22464 -0.19403,-0.0745 -0.35278,-0.0123 -0.35278,0.13811 0,0.15042 0.20836,0.32794 0.46302,0.39449 0.28291,0.0739 0.1781,0.13294 -0.26944,0.1517 -0.70162,0.0294 -0.73056,0.0845 -0.6872,1.30951 0.0249,0.70335 0.17591,1.29613 0.33559,1.3173 0.15968,0.0212 0.58798,0.0853 0.95178,0.14262 0.36381,0.0573 0.78123,0.11934 0.92761,0.13791 0.38551,0.0489 0.28395,8.58165 -0.10368,8.71086 -0.16212,0.054 -0.29476,0.20365 -0.29476,0.33248 0,0.12883 0.15312,0.17548 0.34027,0.10366 0.27037,-0.10375 0.34527,1.04345 0.36463,5.58523 0.0204,4.78636 -0.0385,5.73994 -0.36245,5.86424 -0.31596,0.12124 -0.32217,0.18839 -0.0339,0.36654 0.25031,0.1547 0.36214,0.95167 0.38465,2.74131 0.0281,2.2374 -0.0206,2.52319 -0.43062,2.52319 -0.2543,0 -0.62578,0.20089 -0.82549,0.44642 -0.38419,0.4723 -0.40366,0.47388 0.95979,-0.0779 0.31858,-0.12892 0.39687,0.0799 0.39687,1.05833 0,0.7966 -0.11459,1.22034 -0.33073,1.22299 -0.24085,0.003 -0.248,0.0569 -0.0263,0.19844 0.21715,0.13867 0.29496,2.01435 0.27149,6.54438 -0.0313,6.02986 -0.0599,6.3729 -0.56898,6.80422 -0.30688,0.26002 -0.39467,0.45798 -0.20534,0.46302 0.18191,0.005 0.33073,-0.11026 0.33073,-0.25578 0,-0.14552 0.11272,-0.26458 0.25049,-0.26458 0.29821,0 0.12593,8.36739 -0.27239,13.22916 -0.88857,10.84586 -3.40145,17.34409 -8.58048,22.18881 -1.06189,0.99335 -1.92083,1.59851 -2.14156,1.50884 -0.20271,-0.0823 -0.57691,-0.2205 -0.83158,-0.30698 -0.38984,-0.1324 -0.4003,-0.11214 -0.0661,0.12824 0.34745,0.24994 0.34325,0.28599 -0.0337,0.28954 -0.23684,0.002 -0.57884,0.18264 -0.76,0.40093 -0.43108,0.51941 -0.14539,0.50433 0.67902,-0.0358 0.36323,-0.238 0.72075,-0.37238 0.7945,-0.29863 0.21438,0.21438 -2.30925,1.73629 -4.05606,2.44608 -5.338331,2.16916 -10.697544,2.52068 -16.276315,1.0676 -4.493411,-1.17039 -8.741001,-4.41608 -10.732117,-8.20069 -0.604541,-1.14908 -0.699277,-1.65016 -0.701384,-3.70977 -0.0028,-2.78099 0.26779,-3.35926 2.930471,-6.2615 0.889903,-0.96997 1.889579,-2.33918 2.221503,-3.04271 0.817275,-1.73223 0.838736,-4.2332 0.05152,-6.00424 -0.314275,-0.70704 -0.503999,-1.3946 -0.421608,-1.52791 0.08239,-0.13331 0.05165,-0.21008 -0.0683,-0.1706 -0.119957,0.0395 -0.657738,-0.26413 -1.195068,-0.67469 -0.537331,-0.41056 -1.549362,-0.97013 -2.248958,-1.24348 -1.160357,-0.45338 -1.20233,-0.49844 -0.478244,-0.51342 0.611998,-0.0127 0.702874,-0.0752 0.396875,-0.27291 -0.339169,-0.21919 -0.329551,-0.25707 0.06615,-0.26053 0.254661,-0.002 0.463021,-0.10327 0.463021,-0.22454 0,-0.39892 -0.872357,-0.23008 -1.367014,0.26458 -0.599706,0.59971 -2.395934,0.65498 -2.86632,0.0882 -0.227569,-0.27421 -0.237582,-0.39688 -0.0324,-0.39688 0.163339,0 0.29698,0.11906 0.29698,0.26458 0,0.36125 1.511774,0.33658 1.73731,-0.0283 0.117994,-0.19092 0.0083,-0.23909 -0.315114,-0.13833 -0.272885,0.085 -0.66251,0.0502 -0.865834,-0.0775 -0.251285,-0.15776 -0.05498,-0.23209 0.612951,-0.23209 0.540447,0 1.054069,-0.0714 1.141381,-0.15875 0.316281,-0.31628 -2.236657,-0.14907 -3.752596,0.24578 -2.556872,0.66598 -5.591609,2.30669 -5.259753,2.84364 0.09286,0.15025 0.05983,0.20581 -0.0734,0.12347 -0.13323,-0.0823 -0.472039,0.0183 -0.752909,0.2237 -0.28087,0.20538 -0.44682,0.37341 -0.368778,0.37341 0.07804,0 -0.339119,0.50565 -0.927024,1.12367 -0.846325,0.88967 -0.975537,1.14165 -0.620491,1.21003 0.246635,0.0475 0.448427,0.18554 0.448427,0.30677 0,0.12123 -0.212659,0.1648 -0.472575,0.0968 -0.361476,-0.0945 -0.610281,0.19179 -1.058333,1.21792 -0.63612,1.45684 -0.734709,1.9889 -0.321175,1.73333 0.14552,-0.0899 0.264583,-0.0374 0.264583,0.11667 0,0.15411 -0.170026,0.2802 -0.377837,0.2802 -0.260331,0 -0.435353,0.46035 -0.562783,1.48026 -0.405948,3.2491 0.549148,8.19659 1.680045,8.70279 0.637892,0.28553 0.821598,0.81285 0.200091,0.57436 -0.261117,-0.1002 -0.334615,-0.02 -0.230441,0.25148 0.08413,0.21923 0.314373,0.33667 0.511656,0.26096 0.197283,-0.0757 0.475386,0.0804 0.618007,0.34688 0.352699,0.65903 0.02357,0.92063 -0.442293,0.35155 -0.207052,-0.25293 -0.169966,-0.0839 0.08263,0.3766 0.386906,0.70537 0.531984,0.78949 0.931369,0.54007 0.348264,-0.21749 0.39867,-0.38509 0.191058,-0.63525 -0.43236,-0.52096 -1.807747,-3.51793 -1.807747,-3.93908 0,-0.34267 -0.332251,-0.49297 -0.879562,-0.3979 -0.119957,0.0208 -0.141496,-0.0861 -0.04786,-0.23756 0.09363,-0.1515 0.281076,-0.20696 0.416542,-0.12324 0.135465,0.0837 0.246301,-0.0473 0.246301,-0.29112 0,-0.31309 -0.155477,-0.40269 -0.529167,-0.30497 -0.600288,0.15698 -0.730967,-0.28042 -0.150346,-0.50322 0.500915,-0.19222 0.415859,-1.15511 -0.104396,-1.18183 -0.272228,-0.014 -0.297355,-0.065 -0.07599,-0.15434 0.208271,-0.084 0.344432,-0.73758 0.367736,-1.76505 l 0.03701,-1.6316 0.19314,2.01698 c 0.593966,6.20284 3.149602,10.61208 8.374451,14.44843 0.918032,0.67406 1.627929,1.26679 1.577549,1.31717 -0.213314,0.21332 -1.490363,-0.4756 -2.156928,-1.16357 -0.39647,-0.40921 -0.63923,-0.59518 -0.539467,-0.41328 0.09976,0.1819 0.0553,0.33073 -0.09881,0.33073 -0.154109,0 -0.280198,0.1318 -0.280198,0.29289 0,0.16109 0.153815,0.23387 0.341813,0.16173 0.413359,-0.15863 1.353934,0.4791 1.162787,0.78838 -0.07474,0.12093 0.406775,0.20161 1.070033,0.17928 0.899238,-0.0303 1.530002,0.15049 2.48024,0.71077 0.700875,0.41325 1.749892,0.87943 2.331148,1.03594 0.581257,0.15652 1.211017,0.43026 1.399467,0.60831 0.18845,0.17806 0.580761,0.36346 0.871803,0.412 0.81869,0.13655 1.001325,0.46012 0.527277,0.93417 -0.238031,0.23803 -0.301479,0.43278 -0.140997,0.43278 0.160482,0 0.360056,-0.17791 0.443498,-0.39536 0.08344,-0.21744 0.258299,-0.32948 0.388571,-0.24896 0.130272,0.0805 0.236859,0.0314 0.236859,-0.10905 0,-0.32025 1.125859,-0.0531 1.375096,0.3263 0.101459,0.15445 0.04193,0.37143 -0.132292,0.48218 -0.210508,0.13382 -0.151953,0.20273 0.174566,0.20542 0.328802,0.003 0.440951,-0.12723 0.339033,-0.39282 -0.09277,-0.24175 -4.19e-4,-0.39688 0.236276,-0.39688 0.213714,0 0.390394,0.20836 0.392622,0.46302 0.0032,0.36584 0.05248,0.38657 0.234771,0.0988 0.193019,-0.30473 0.505797,-0.30962 1.914177,-0.0299 0.925903,0.18389 2.248934,0.38905 2.940069,0.45592 0.85583,0.0828 1.19827,0.21893 1.073691,0.42679 -0.126182,0.21054 -0.06031,0.20605 0.212365,-0.0144 0.217408,-0.17581 0.667046,-0.24859 0.999197,-0.16173 0.452301,0.11828 0.515268,0.21412 0.250816,0.38175 -0.194203,0.1231 -0.22808,0.22565 -0.07528,0.22787 0.152797,0.002 0.391651,-0.10978 0.530787,-0.24892 z M 62.48682,200.19817 c -0.08376,-0.21828 -0.04971,-0.39687 0.07568,-0.39687 0.125384,0 0.296505,0.17859 0.380267,0.39687 0.08376,0.21828 0.04971,0.39688 -0.07568,0.39688 -0.125384,0 -0.296505,-0.1786 -0.380267,-0.39688 z m -0.962653,-4.63021 c 0,-0.14552 0.119063,-0.26458 0.264583,-0.26458 0.145521,0 0.264584,0.11906 0.264584,0.26458 0,0.14553 -0.119063,0.26459 -0.264584,0.26459 -0.14552,0 -0.264583,-0.11906 -0.264583,-0.26459 z M 62.5825,191.8638 c 0.106442,-0.58209 0.147241,-1.05834 0.09067,-1.05834 -0.05658,0 0.07889,-0.27739 0.301038,-0.61643 0.222146,-0.33904 0.32411,-0.69622 0.226585,-0.79375 -0.09752,-0.0975 -0.03841,-0.17732 0.131364,-0.17732 0.169774,0 0.308681,-0.17859 0.308681,-0.39687 0,-0.21828 -0.12609,-0.39688 -0.280199,-0.39688 -0.154109,0 -0.206613,0.11907 -0.116676,0.26459 0.08994,0.14552 0.02751,0.26458 -0.138726,0.26458 -0.166236,0 -0.252309,-0.14883 -0.191275,-0.33073 0.06103,-0.1819 0.337258,-0.33094 0.613829,-0.3312 0.276572,-2.6e-4 0.542943,-0.20862 0.591936,-0.46302 0.04899,-0.2544 0.213989,-0.46255 0.366658,-0.46255 0.17848,0 0.166968,-0.13328 -0.03225,-0.37332 -0.211802,-0.2552 -0.222052,-0.42757 -0.0324,-0.54478 0.152629,-0.0943 0.286827,0.0438 0.298319,0.30717 0.0132,0.3025 0.07184,0.3514 0.159351,0.13288 0.190867,-0.47662 1.148753,-1.40837 2.065195,-2.00885 0.438988,-0.28764 0.128021,0.14073 -0.730095,1.00573 -1.635378,1.64849 -3.059531,4.22245 -3.290972,5.94797 -0.08037,0.5992 -0.233524,1.08945 -0.340344,1.08945 -0.106821,0 -0.107131,-0.47625 -6.9e-4,-1.05833 z m 5.490104,-7.69672 c 0.458947,-0.48099 0.41387,-0.85847 -0.07989,-0.66899 -0.235459,0.0904 -0.341662,0.046 -0.248968,-0.10399 0.202447,-0.32756 0.924169,-0.34505 0.924169,-0.0224 0,0.13154 0.596589,0.0125 1.325754,-0.26458 0.729165,-0.27706 1.6519,-0.49362 2.050521,-0.48125 0.51282,0.0159 0.337901,0.11836 -0.59815,0.35031 -0.727605,0.18029 -1.858698,0.59998 -2.513542,0.93265 -0.654844,0.33267 -1.041797,0.44888 -0.859896,0.25824 z m 48.699866,-58.10069 c 0.191,-0.0764 0.4192,-0.067 0.50712,0.0209 0.0879,0.0879 -0.0683,0.15045 -0.34727,0.13897 -0.30822,-0.0127 -0.37092,-0.0754 -0.15985,-0.15986 z m -0.57065,-1.28642 c 0.0806,-0.21003 0.25313,-0.31601 0.3834,-0.23549 0.32811,0.20278 0.29791,0.2997 -0.14654,0.47025 -0.25575,0.0981 -0.33461,0.02 -0.23686,-0.23476 z m 0.35568,-7.26409 c -0.28839,-0.18636 -0.3022,-0.25758 -0.0505,-0.26053 0.19049,-0.002 0.27276,-0.12311 0.18282,-0.26863 -0.0899,-0.14552 0.0221,-0.26458 0.24897,-0.26458 0.22687,0 0.41249,0.11906 0.41249,0.26458 0,0.14552 -0.12609,0.26458 -0.2802,0.26458 -0.15411,0 -0.20661,0.11906 -0.11668,0.26458 0.20302,0.32849 0.11142,0.32849 -0.39687,0 z m 0.95758,-0.74272 c -0.16792,-0.2717 -0.0593,-1.0375 0.18129,-1.27809 0.10122,-0.10122 0.18404,-0.46186 0.18404,-0.80141 0,-0.41953 -0.14837,-0.61066 -0.46302,-0.59647 -0.27933,0.0126 -0.33116,0.074 -0.13064,0.15489 0.36582,0.14748 0.18971,0.61797 -0.23132,0.61797 -0.14552,0 -0.19099,-0.11906 -0.10106,-0.26458 0.091,-0.14721 -0.1075,-0.2646 -0.4474,-0.26462 -0.56075,-3e-5 -0.61363,-0.12049 -0.64376,-1.46651 -0.0302,-1.35142 -0.003,-1.42356 0.35032,-0.91946 0.2474,0.35321 0.32188,0.8259 0.21024,1.33421 -0.14279,0.65011 -0.0886,0.78651 0.31114,0.78316 0.41198,-0.003 0.42496,-0.044 0.0872,-0.27262 -0.29618,-0.20043 -0.21659,-0.22677 0.31373,-0.10382 0.65649,0.1522 0.70883,0.10244 0.68734,-0.65343 -0.0128,-0.44999 -0.10359,-0.81816 -0.20176,-0.81816 -0.0982,0 -0.12808,-0.34352 -0.0665,-0.76337 0.0616,-0.41985 -0.0435,-1.04493 -0.23362,-1.38906 -0.19012,-0.34413 -0.32003,-0.75468 -0.28868,-0.91233 0.0313,-0.15765 -0.11704,-0.28663 -0.32973,-0.28663 -0.21269,0 -0.32539,0.0992 -0.25044,0.22049 0.075,0.12126 0.003,0.22048 -0.15955,0.22048 -0.16269,0 -0.22102,0.12101 -0.12962,0.2689 0.0914,0.1479 0.27702,0.2004 0.41249,0.11668 0.13547,-0.0837 0.2463,-0.0261 0.2463,0.12797 0,0.15411 -0.11906,0.2802 -0.26458,0.2802 -0.14552,0 -0.26459,0.18662 -0.26459,0.41471 0,0.29743 0.16835,0.37294 0.59532,0.26702 0.32742,-0.0812 0.44574,-0.0791 0.26293,0.005 -0.18281,0.0838 -0.27279,0.24887 -0.19996,0.36671 0.0728,0.11784 -0.0517,0.2849 -0.27667,0.37125 -0.23426,0.0899 -0.34002,0.0452 -0.24745,-0.10457 0.0889,-0.14386 0.0217,-0.26155 -0.1494,-0.26155 -0.18989,0 -0.26132,-0.2601 -0.18338,-0.66778 0.0702,-0.36727 0.0245,-0.73149 -0.10145,-0.80936 -0.12601,-0.0779 -0.2291,-0.008 -0.2291,0.15422 0,0.1627 -0.13178,0.21437 -0.29283,0.11483 -0.20417,-0.12618 -0.18454,-0.24791 0.0648,-0.40204 0.29305,-0.18111 0.28092,-0.28272 -0.0671,-0.56224 -0.23362,-0.18765 -0.49776,-0.55101 -0.58697,-0.80747 -0.13634,-0.3919 -0.0473,-0.44125 0.55834,-0.30933 0.5559,0.1211 0.62986,0.0925 0.32368,-0.12497 -0.24455,-0.17372 -0.27593,-0.28348 -0.0818,-0.28598 0.17331,-0.002 0.3887,0.11501 0.47863,0.26053 0.0899,0.14552 0.28259,0.26459 0.42811,0.26459 0.14728,0 0.17148,-0.14664 0.0546,-0.33073 -0.1155,-0.1819 -0.21968,-0.39026 -0.23151,-0.46302 -0.0942,-0.57923 -1.08093,-2.11667 -1.35851,-2.11667 -0.19133,0 -0.34788,-0.10858 -0.34788,-0.24129 0,-0.1327 -0.32742,-0.20496 -0.7276,-0.16057 -0.40018,0.0444 -0.82597,-0.0554 -0.94618,-0.22173 -0.16115,-0.22298 -0.25399,-0.21511 -0.35333,0.0299 -0.0741,0.18281 -0.24574,0.26379 -0.38139,0.17995 -0.13565,-0.0838 -0.005,-0.45994 0.29089,-0.83579 0.55098,-0.70047 0.50652,-1.21398 -0.0564,-0.65108 -0.1722,0.1722 -0.55717,0.30554 -0.85548,0.29632 -0.51171,-0.0158 -0.50872,-0.0303 0.0529,-0.25606 0.60645,-0.24376 0.82378,-0.7855 0.31512,-0.7855 -0.15411,0 -0.19589,0.13642 -0.0928,0.30317 0.13252,0.21442 -0.0243,0.25004 -0.53572,0.12168 -0.43302,-0.10868 -0.66098,-0.081 -0.56827,0.069 0.0872,0.14103 -0.079,0.18936 -0.38028,0.11058 -0.74516,-0.19486 -0.17793,-0.8517 0.61025,-0.70666 0.35475,0.0653 0.23846,-0.0534 -0.29502,-0.30111 -0.48433,-0.22487 -1.35196,-0.44883 -1.92805,-0.49767 -0.57609,-0.0488 -1.12256,-0.16392 -1.21437,-0.25573 -0.0918,-0.0918 0.47815,-0.10626 1.26659,-0.0321 3.11472,0.29293 6.11439,2.39036 7.64605,5.34627 0.66779,1.28876 0.54626,1.66339 -0.5396,1.66339 -0.42798,0 -0.77814,0.11906 -0.77814,0.26458 0,0.33074 0.56396,0.33886 1.40215,0.0202 0.58731,-0.2233 0.66688,-0.16044 0.92109,0.7276 0.47279,1.65169 0.76129,5.04265 0.6173,7.25587 -0.0311,0.47737 -0.42676,0.62692 -0.66004,0.24946 z m -1.30601,-4.33397 c -0.0845,-0.21106 -0.14716,-0.14837 -0.15985,0.15985 -0.0115,0.27892 0.051,0.43519 0.13896,0.34727 0.0879,-0.0879 0.0973,-0.31612 0.0209,-0.50712 z m -1.89991,-8.21632 c 0.11908,0.10788 0.13408,0.0525 0.0333,-0.12303 -0.10076,-0.17555 -0.35932,-0.25159 -0.57459,-0.16898 -0.27737,0.10643 -0.34374,0.026 -0.2278,-0.27614 0.09,-0.23448 0.0417,-0.42633 -0.10725,-0.42633 -0.40179,0 -0.52946,0.60433 -0.20278,0.95992 0.17196,0.18719 0.39914,0.21656 0.57365,0.0742 0.15891,-0.12966 0.38635,-0.14749 0.50544,-0.0396 z m 1.86571,11.99315 c -0.0978,-0.1582 -0.0219,-0.28946 0.16858,-0.29169 0.25166,-0.003 0.23785,-0.0742 -0.0505,-0.26053 -0.23846,-0.15411 -0.2711,-0.2581 -0.0818,-0.26053 0.45648,-0.006 0.71521,0.52667 0.40607,0.83581 -0.17639,0.17638 -0.32384,0.1687 -0.44235,-0.0231 z m 0.89213,-2.99961 c -0.11589,-0.3899 -0.23288,-1.3297 -0.15445,-1.24071 0.38824,0.44051 0.68523,1.30685 0.44801,1.30685 -0.15064,0 -0.28274,-0.0298 -0.29356,-0.0661 z m -3.43619,-7.3581 c -0.43765,-0.42781 -0.67177,-0.77784 -0.52027,-0.77784 0.1515,0 0.52239,0.284 0.8242,0.63111 0.34907,0.40147 0.73353,0.58279 1.05658,0.49831 0.27932,-0.073 0.50784,-0.0252 0.50784,0.10633 0,0.54299 -1.12701,0.26678 -1.86835,-0.45791 z m 0.54544,-0.37266 c 0,-0.2367 0.15512,-0.32905 0.39687,-0.23628 0.21828,0.0838 0.39688,0.25862 0.39688,0.38857 0,0.12995 -0.1786,0.23628 -0.39688,0.23628 -0.21828,0 -0.39687,-0.17486 -0.39687,-0.38857 z m 22.48958,-2.14387 c 0,-0.29011 0.75867,-0.90708 1.10558,-0.8991 0.21749,0.005 0.17253,0.11115 -0.11896,0.28085 -0.25772,0.15004 -0.39952,0.38454 -0.31511,0.52112 0.0844,0.13657 -0.0322,0.24832 -0.25902,0.24832 -0.22687,0 -0.41249,-0.068 -0.41249,-0.15119 z m 2.43819,-1.77488 c 0.31759,-0.25737 0.37023,-0.45134 0.17538,-0.64619 -0.19485,-0.19485 -0.19012,-0.33301 0.0158,-0.46025 0.16702,-0.10322 0.26277,-0.0303 0.2215,0.16857 -0.04,0.19272 0.085,0.31768 0.27769,0.2777 0.51076,-0.10598 0.11437,0.41967 -0.56357,0.74733 -0.51988,0.25126 -0.53313,0.24215 -0.12676,-0.0872 z m -33.44405,-0.63592 c 0.191,-0.0764 0.4192,-0.067 0.50712,0.0209 0.0879,0.0879 -0.0683,0.15045 -0.34727,0.13896 -0.30822,-0.0127 -0.37091,-0.0754 -0.15985,-0.15985 z m 5.07521,-0.0848 c -0.20904,-0.12919 -0.27792,-0.33067 -0.15307,-0.44772 0.12485,-0.11705 0.28015,-0.064 0.34512,0.11791 0.16167,0.45269 1.4464,0.41693 2.07397,-0.0577 0.28247,-0.21366 0.62564,-0.39225 0.7626,-0.39688 0.13695,-0.005 0.0361,0.14726 -0.22411,0.33753 -0.39445,0.28844 0.76569,0.35736 6.9786,0.41458 5.85037,0.0539 7.5441,-0.006 7.88166,-0.2798 0.35703,-0.28933 0.39375,-0.28828 0.21648,0.006 -0.17195,0.28565 0.11416,0.33429 1.47056,0.24999 0.92623,-0.0576 1.92217,-0.19862 2.21321,-0.31347 0.42862,-0.16912 0.45376,-0.15234 0.1323,0.0883 -0.30152,0.22572 0.15942,0.27939 1.91837,0.2234 1.27339,-0.0405 2.31518,0.0181 2.3151,0.13036 -2e-4,0.28618 -25.46563,0.21479 -25.93079,-0.0727 z m -1.98289,-0.26367 c -0.0954,-0.15436 0.17364,-0.26458 0.64584,-0.26458 0.44515,0 0.80937,0.11906 0.80937,0.26458 0,0.14552 -0.29063,0.26459 -0.64585,0.26459 -0.35521,0 -0.71942,-0.11907 -0.80936,-0.26459 z m 12.25351,-0.18074 c 0.191,-0.0764 0.4192,-0.067 0.50712,0.0209 0.0879,0.0879 -0.0683,0.15045 -0.34726,0.13896 -0.30823,-0.0127 -0.37092,-0.0754 -0.15986,-0.15985 z M 79.109875,214.12845 c -0.149082,-0.15694 -0.652376,0.24081 -0.652376,0.51556 0,0.14267 0.166586,0.10588 0.37019,-0.0818 0.203604,-0.18764 0.330588,-0.38285 0.282186,-0.4338 z m 13.105957,0.37284 c 0,-0.0642 -0.119062,-0.19026 -0.264583,-0.2802 -0.145521,-0.0899 -0.264584,-0.0374 -0.264584,0.11667 0,0.15411 0.119063,0.2802 0.264584,0.2802 0.145521,0 0.264583,-0.0525 0.264583,-0.11667 z m 4.7625,-0.40419 c 0,-0.14095 -0.178594,-0.18775 -0.396875,-0.10398 -0.218281,0.0838 -0.396875,0.19908 -0.396875,0.25628 0,0.0572 0.178594,0.10398 0.396875,0.10398 0.218281,0 0.396875,-0.11533 0.396875,-0.25628 z m -19.717359,-0.24993 c 0.511158,-0.19971 0.509999,-0.21154 -0.05009,-0.51129 -0.434054,-0.2323 -0.619329,-0.23246 -0.762584,-6.7e-4 -0.117398,0.18996 -0.07328,0.23452 0.116235,0.11739 0.168005,-0.10383 0.305464,-0.0726 0.305464,0.0694 0,0.14198 -0.148829,0.3182 -0.33073,0.3916 -0.181901,0.0734 -0.211666,0.13448 -0.06615,0.13574 0.14552,0.001 0.500052,-0.0897 0.787848,-0.20214 z m 12.110276,-0.32895 c -0.136923,-0.5236 -0.07606,-0.55595 0.739222,-0.39289 0.488637,0.0977 0.981823,0.32472 1.09597,0.50443 0.145998,0.22986 0.208739,0.18945 0.21159,-0.13628 0.0022,-0.25466 -0.204308,-0.4823 -0.45897,-0.50587 -1.59113,-0.14727 -2.711979,-0.10587 -2.711979,0.10018 0,0.13117 0.127077,0.15995 0.282392,0.064 0.155497,-0.0961 0.347703,0.0752 0.427734,0.38126 0.07994,0.30568 0.239371,0.55579 0.354296,0.55579 0.114925,0 0.14181,-0.25676 0.05975,-0.57058 z m 9.342451,0.18212 c 0.282474,-0.21366 0.394528,-0.38846 0.249007,-0.38846 -0.145521,0 -0.495699,0.1748 -0.778174,0.38846 -0.282475,0.21365 -0.394528,0.38846 -0.249007,0.38846 0.145521,0 0.495699,-0.17481 0.778174,-0.38846 z m -22.964067,-0.24143 c -0.2524,-0.19166 -0.375091,-0.43229 -0.272648,-0.53474 0.102443,-0.10244 -0.01847,-0.1077 -0.268696,-0.0117 -0.600743,0.23052 -0.574121,0.3517 0.140356,0.63888 0.832072,0.33446 0.932661,0.31126 0.400988,-0.0925 z m 20.302657,-0.16386 c 0.08994,-0.14552 -0.08866,-0.26459 -0.396875,-0.26459 -0.308218,0 -0.486812,0.11907 -0.396875,0.26459 0.08994,0.14552 0.268531,0.26458 0.396875,0.26458 0.128345,0 0.306938,-0.11906 0.396875,-0.26458 z m 3.108854,-0.63097 c 0.780468,-0.18542 0.930036,0.0453 0.396875,0.61221 -0.272429,0.28967 -0.190808,0.31902 0.463021,0.16649 0.43656,-0.10185 0.91281,-0.31328 1.05833,-0.46985 0.18176,-0.19557 0.16042,-0.22584 -0.0682,-0.0967 -0.18302,0.10338 -0.52819,-0.007 -0.76705,-0.24632 -0.260035,-0.26003 -0.657323,-0.37441 -0.990157,-0.28506 -0.305728,0.0821 -0.700509,0.15085 -0.87729,0.15283 -0.176781,0.002 -0.461996,0.27151 -0.633811,0.59893 -0.297329,0.56661 -0.28821,0.5747 0.189128,0.16783 0.275836,-0.23512 0.828942,-0.50528 1.229124,-0.60036 z m -5.551214,0.45742 c -0.179131,-0.0725 -0.536319,-0.0769 -0.79375,-0.01 -0.257431,0.0671 -0.110869,0.12638 0.325694,0.13178 0.436562,0.005 0.647188,-0.0495 0.468056,-0.12197 z m 3.765277,-0.091 c 0.09118,-0.14754 -0.106737,-0.26279 -0.447406,-0.26053 -0.4915,0.003 -0.533344,0.0542 -0.214052,0.26053 0.492319,0.31816 0.464823,0.31816 0.661458,0 z M 74.48875,212.76588 c 0,-0.14552 0.208359,-0.26641 0.46302,-0.26863 0.395697,-0.003 0.405315,-0.0413 0.06615,-0.26054 -0.448184,-0.28964 -0.974251,-0.35689 -0.707851,-0.0905 0.09575,0.0958 0.04149,0.33388 -0.120591,0.52917 -0.216756,0.26117 -0.216149,0.35507 0.0023,0.35507 0.163339,0 0.29698,-0.11906 0.29698,-0.26458 z m 28.04583,-0.1792 c 0.3638,-0.1576 0.95912,-0.41182 1.32292,-0.56493 l 0.66146,-0.27839 -0.63023,-0.0179 c -0.57235,-0.0163 -2.41248,0.90661 -2.41248,1.20992 0,0.0695 0.0893,0.0839 0.19844,0.0321 0.10914,-0.0518 0.49609,-0.22319 0.85989,-0.38078 z m -29.039666,-0.2765 c -0.182808,-0.0653 -0.265078,-0.22756 -0.182823,-0.36065 0.08226,-0.13309 -0.03606,-0.24198 -0.262935,-0.24198 -0.226869,0 -0.41249,0.0762 -0.41249,0.16927 0,0.26323 0.908984,0.86375 1.057918,0.69891 0.07299,-0.0808 -0.01686,-0.20028 -0.19967,-0.26555 z m 13.116126,-0.19641 c -0.264026,-0.22055 -1.274374,-0.66986 -1.274374,-0.56672 0,0.31235 0.865066,0.9414 1.097267,0.79789 0.14347,-0.0887 0.223168,-0.1927 0.177107,-0.23117 z m 15.19279,-0.40622 c 0.15938,0 0.22842,-0.0614 0.15343,-0.13636 -0.075,-0.075 -0.52846,0.0285 -1.00769,0.23002 -0.5263,0.22129 -0.72644,0.41467 -0.50542,0.48834 0.20125,0.0671 0.52431,-0.0364 0.71791,-0.23001 0.19359,-0.1936 0.48239,-0.35199 0.64177,-0.35199 z m -29.431747,0.1416 c 0,-0.0676 -0.26789,-0.25281 -0.595312,-0.41147 -0.571666,-0.27703 -0.574912,-0.27215 -0.08172,0.12298 0.539819,0.43248 0.677034,0.49095 0.677034,0.28849 z m 12.314004,-0.65317 c -0.09592,-0.1552 -0.291131,-0.28218 -0.433801,-0.28218 -0.14267,0 -0.105878,0.16658 0.08176,0.37019 0.379851,0.41217 0.623519,0.35126 0.35204,-0.088 z m 18.377663,-0.0176 c 0.21828,-0.14106 0.27781,-0.25648 0.13229,-0.25648 -0.14552,0 -0.44318,0.11542 -0.66146,0.25648 -0.21828,0.14106 -0.27781,0.25648 -0.13229,0.25648 0.14552,0 0.44318,-0.11542 0.66146,-0.25648 z m 3.58985,-2.24896 c 0.66725,-0.50932 1.13423,-0.92604 1.03773,-0.92604 -0.19576,0 -2.51092,1.62706 -2.51092,1.76464 0,0.21884 0.34559,0.0221 1.47319,-0.8386 z m 0.91337,0.52277 c 0.48639,-0.58605 0.20961,-0.65343 -0.33603,-0.0818 -0.25467,0.26679 -0.35854,0.48507 -0.23084,0.48507 0.1277,0 0.3828,-0.18147 0.56687,-0.40327 z m -38.720369,-0.0354 c -0.09575,-0.0957 -0.04926,-0.32451 0.103316,-0.50835 0.213406,-0.25714 0.136571,-0.30401 -0.333025,-0.20315 -0.593718,0.12752 -0.59637,0.11971 -0.09684,-0.2854 0.380834,-0.30885 0.41503,-0.42221 0.132292,-0.43856 -0.209715,-0.0121 -0.639416,-0.051 -0.954892,-0.0865 -0.524413,-0.0589 -0.502407,0.011 0.256658,0.8158 0.456638,0.48412 0.883426,0.88022 0.948419,0.88022 0.06499,0 0.03983,-0.0783 -0.05592,-0.17409 z m 40.550939,-1.41341 c 0.17522,0 0.50649,-0.1879 0.73615,-0.41756 0.38037,-0.38037 0.37279,-0.40983 -0.085,-0.33073 -0.27644,0.0478 -0.48108,-0.0373 -0.45477,-0.18897 0.0263,-0.15169 -0.1999,-0.29447 -0.50268,-0.31728 -0.53516,-0.0403 -0.53393,-0.0298 0.044,0.37499 l 0.59457,0.41645 -0.81949,0.39689 c -0.45072,0.21829 -0.81949,0.57883 -0.81949,0.8012 0,0.30366 0.12299,0.2625 0.49406,-0.16534 0.27173,-0.31331 0.63742,-0.56965 0.81265,-0.56965 z m -0.84372,-0.68354 c -0.25214,-0.25214 -0.75764,0.15626 -0.56973,0.46029 0.11168,0.18071 0.25968,0.17615 0.44969,-0.0139 0.15578,-0.15577 0.20979,-0.35666 0.12004,-0.44642 z m -40.844691,-0.23243 c -0.158499,-0.41304 -1.101189,-0.81641 -1.342956,-0.57465 -0.07986,0.0799 -0.358956,-0.11763 -0.620216,-0.43886 -0.438621,-0.53931 -0.441172,-0.59714 -0.0333,-0.75472 0.366549,-0.14161 0.329155,-0.21512 -0.21974,-0.43195 -1.083073,-0.42786 -1.120808,-0.0919 -0.126025,1.12215 0.721592,0.8806 1.068657,1.11178 1.499847,0.99902 0.383035,-0.10017 0.500961,-0.0495 0.371728,0.15955 -0.111808,0.18091 -0.02385,0.30626 0.214906,0.30626 0.245897,0 0.346057,-0.15148 0.255756,-0.3868 z m 43.688991,-0.93611 c 0.0899,-0.14552 0.0374,-0.26459 -0.11667,-0.26459 -0.15411,0 -0.2802,0.11907 -0.2802,0.26459 0,0.14552 0.0525,0.26458 0.11667,0.26458 0.0642,0 0.19027,-0.11906 0.2802,-0.26458 z m -1.19062,-0.85446 c 0,-0.15486 -0.16812,-0.12914 -0.39688,0.0607 -0.21828,0.18115 -0.39687,0.37059 -0.39687,0.42096 0,0.0504 0.17859,0.0231 0.39687,-0.0607 0.21828,-0.0838 0.39688,-0.2732 0.39688,-0.42097 z m 1.31913,-0.0489 c -0.17134,-0.17135 -0.35025,-0.17135 -0.5216,0 -0.17135,0.17135 -0.0819,0.26081 0.2608,0.26081 0.3427,0 0.43215,-0.0895 0.2608,-0.26081 z m -0.91405,-0.40627 c -0.22875,-0.37012 0.73324,-0.79913 1.47037,-0.65572 0.4476,0.0871 0.50275,0.0633 0.18476,-0.0798 -0.31288,-0.14074 -0.38061,-0.3216 -0.2186,-0.58373 0.18279,-0.29577 0.3178,-0.31085 0.61024,-0.0682 0.30193,0.25059 0.43418,0.18289 0.67493,-0.34551 0.23086,-0.50667 0.22522,-0.64252 -0.0246,-0.59324 -0.17822,0.0351 -0.30251,-0.0602 -0.2762,-0.21189 0.0965,-0.55659 -0.94917,-0.33048 -1.35812,0.29366 -0.23194,0.35398 -0.2999,0.6436 -0.15103,0.6436 0.14888,0 0.27069,0.11533 0.27069,0.25628 0,0.14095 -0.20836,0.18151 -0.46302,0.0901 -0.25466,-0.0914 -0.37448,-0.0686 -0.26627,0.0507 0.10822,0.11928 -0.0426,0.38452 -0.33516,0.58943 -0.45391,0.31793 -0.51398,0.86552 -0.0949,0.86552 0.0728,0 0.0624,-0.11309 -0.023,-0.2513 z m 1.447,-2.26224 c 0,-0.21828 0.10448,-0.39687 0.23219,-0.39687 0.1277,0 0.3804,0.17859 0.56156,0.39687 0.27518,0.33158 0.23698,0.39688 -0.23219,0.39688 -0.32277,0 -0.56156,-0.16876 -0.56156,-0.39688 z m -0.13229,2.24896 c -0.0899,-0.14552 -0.30532,-0.26276 -0.47864,-0.26053 -0.18934,0.002 -0.1567,0.10642 0.0818,0.26053 0.5083,0.32849 0.5999,0.32849 0.39688,0 z m 2.2305,-3.61269 c 0.0626,-0.0543 -0.31274,-0.0673 -0.83411,-0.0289 -0.52137,0.0384 -0.89272,0.15947 -0.82522,0.26914 0.11144,0.18108 1.38616,-0.003 1.65933,-0.24022 z m -0.81251,-1.06236 c -0.25284,-0.30466 -0.35476,-0.31116 -0.53069,-0.0338 -0.34832,0.54911 -0.26345,0.70043 0.3089,0.55075 0.42906,-0.1122 0.47289,-0.21436 0.22179,-0.51692 z m 1.13185,0.21755 c 0.38191,-0.44604 0.38117,-0.51205 -0.008,-0.75536 -0.35483,-0.2216 -0.4286,-0.13907 -0.43695,0.48875 -0.006,0.41545 -0.002,0.75536 0.008,0.75536 0.0102,0 0.20679,-0.21994 0.43696,-0.48875 z m -0.46731,-1.41509 c 0.15587,-0.10123 0.21862,-0.24883 0.13945,-0.328 -0.29279,-0.29279 -1.11562,0.55853 -0.89104,0.9219 0.18285,0.29587 0.24254,0.29136 0.34467,-0.026 0.0679,-0.21111 0.25105,-0.46666 0.40692,-0.56789 z m 0.29934,-0.80584 c 0.11908,0.10788 0.13643,0.0563 0.0386,-0.11457 -0.10142,-0.17708 0.0226,-0.36301 0.28831,-0.43232 0.29075,-0.0759 0.19238,-0.13318 -0.26134,-0.15232 -0.40019,-0.0169 -0.72761,0.0191 -0.72761,0.08 0,0.0609 -0.0818,0.32875 -0.18183,0.59531 -0.15331,0.40864 -0.11836,0.43314 0.22278,0.15623 0.22254,-0.18064 0.50204,-0.24017 0.62113,-0.13229 z m 1.06001,0.11024 c -0.0715,-0.0715 0.003,-0.28978 0.16469,-0.48507 0.16207,-0.19529 0.18968,-0.35507 0.0613,-0.35507 -0.12834,0 -0.36966,0.21828 -0.53627,0.48507 -0.23976,0.38391 -0.22544,0.48507 0.0686,0.48507 0.20436,0 0.31308,-0.0585 0.24158,-0.13 z m -0.92834,-1.36931 c 0,-0.14552 0.32742,-0.25621 0.72761,-0.24599 0.65421,0.0167 0.67423,0.0432 0.19843,0.26234 l -0.52916,0.24374 0.52916,-0.0674 c 0.34079,-0.0434 0.5399,-0.27901 0.55931,-0.66173 0.0203,-0.39988 -0.0663,-0.51941 -0.26458,-0.3654 -0.50792,0.39445 -1.45557,0.52694 -1.55859,0.2179 -0.0542,-0.1627 -0.16785,-0.031 -0.2525,0.29268 -0.10519,0.40225 -0.0361,0.58848 0.21822,0.58848 0.20465,0 0.3721,-0.11906 0.3721,-0.26458 z m 0.58867,-1.30978 c -0.0465,-0.20293 0.11262,-0.25875 0.44075,-0.1546 0.28266,0.0897 0.60142,0.0208 0.70899,-0.15324 0.12346,-0.19976 0.0829,-0.2467 -0.11003,-0.12744 -0.168,0.10384 -0.30546,0.0585 -0.30546,-0.10072 0,-0.20885 -0.14949,-0.2095 -0.53658,-0.002 -0.29512,0.15795 -0.46668,0.40026 -0.38126,0.53848 0.0854,0.13822 0.027,0.25131 -0.12992,0.25131 -0.17642,0 -0.21813,-0.26741 -0.10932,-0.70092 0.12381,-0.49329 0.0861,-0.64542 -0.12725,-0.51356 -0.33318,0.20592 -0.40872,1.02074 -0.12127,1.30818 0.27021,0.27022 0.75524,0.0209 0.67135,-0.34515 z m 1.06498,-1.11438 c 0.33599,0.0553 0.4546,-0.0917 0.43233,-0.53577 -0.0225,-0.44826 -0.0631,-0.4881 -0.1517,-0.14892 -0.0666,0.25466 -0.22759,0.46302 -0.35788,0.46302 -0.13028,0 -0.16834,-0.1786 -0.0846,-0.39688 0.0964,-0.25131 -0.004,-0.39687 -0.27289,-0.39687 -0.23385,0 -0.42518,0.10932 -0.42518,0.24294 0,0.13362 -0.0798,0.45081 -0.17725,0.70486 -0.13553,0.35317 -0.0888,0.40654 0.19843,0.22668 0.20663,-0.12938 0.58406,-0.20096 0.83872,-0.15906 z m 0.3659,-1.61073 c -0.10928,0.1819 -0.0726,0.33072 0.0815,0.33072 0.15411,0 0.2802,-0.24334 0.2802,-0.54076 0,-0.29742 -0.14883,-0.52144 -0.33073,-0.49782 -0.1819,0.0236 -0.62838,0.027 -0.99219,0.008 -0.49608,-0.0265 -0.56823,-0.0944 -0.28857,-0.27145 0.20508,-0.12983 0.56227,-0.17855 0.79375,-0.10827 0.23602,0.0717 0.18846,-0.0163 -0.1083,-0.2003 -0.29104,-0.18045 -0.6297,-0.45733 -0.75256,-0.61529 -0.13792,-0.17731 -0.17021,-0.11993 -0.0844,0.14996 0.0765,0.24043 0.0648,0.51139 -0.026,0.60213 -0.0907,0.0907 -0.19823,0.38288 -0.23887,0.6492 -0.0597,0.39115 0.0594,0.45876 0.6194,0.3517 0.5423,-0.10367 0.64487,-0.0521 0.4709,0.23656 -0.172,0.28544 -0.10944,0.27914 0.27605,-0.0278 0.29051,-0.2313 0.41556,-0.2589 0.29976,-0.0661 z m 0.62628,-1.52136 c 0,-0.14552 -0.14882,-0.26641 -0.33073,-0.26863 -0.22048,-0.003 -0.19843,-0.0896 0.0661,-0.26054 0.21828,-0.14106 0.26095,-0.2583 0.0948,-0.26053 -0.16613,-0.002 -0.3757,-0.2975 -0.46572,-0.65617 -0.10977,-0.43735 -0.29349,-0.6023 -0.55785,-0.50086 -0.30917,0.11864 -0.39418,-0.0797 -0.39418,-0.91976 0,-0.58907 0.1393,-1.15712 0.30955,-1.26234 0.20618,-0.12742 0.25485,-0.0488 0.14577,0.23549 -0.11501,0.2997 -0.0496,0.38299 0.21962,0.27968 0.21087,-0.0809 0.3834,-0.25344 0.3834,-0.3834 0,-0.12995 0.25797,-0.23627 0.57326,-0.23627 0.3153,0 0.48968,-0.0836 0.38753,-0.18574 -0.10216,-0.10216 -0.61697,-0.1567 -1.14404,-0.1212 -0.86381,0.0582 -0.92253,0.0215 -0.59563,-0.37244 0.22469,-0.27074 0.39989,-0.32529 0.46053,-0.14338 0.1084,0.3252 0.60135,0.41024 0.5516,0.0952 -0.0835,-0.52869 0.0583,-0.87448 0.29778,-0.72645 0.14655,0.0906 0.34657,-0.0441 0.44448,-0.29924 0.10427,-0.27173 0.0441,-0.50856 -0.1452,-0.57167 -0.24704,-0.0823 -0.25062,-0.19523 -0.0152,-0.47889 0.23549,-0.28375 0.22928,-0.46602 -0.0264,-0.77407 -0.27961,-0.33691 -0.26324,-0.37563 0.0999,-0.23628 0.24149,0.0927 0.43429,0.0366 0.43429,-0.12623 0,-0.16109 -0.35718,-0.2929 -0.79375,-0.2929 -0.43656,0 -0.79375,-0.11532 -0.79375,-0.25627 0,-0.14096 0.1786,-0.18775 0.39688,-0.10399 0.21828,0.0838 0.39687,0.0205 0.39687,-0.14059 0,-0.16109 -0.15869,-0.2929 -0.35265,-0.2929 -0.49002,0 -0.3727,-0.93217 0.19648,-1.5611 0.27047,-0.29887 0.38637,-0.66174 0.27098,-0.84844 -0.14031,-0.22702 -0.0677,-0.27484 0.23867,-0.15726 0.28748,0.11031 0.44027,0.0341 0.44027,-0.21962 0,-0.44476 -0.41679,-0.51986 -0.66412,-0.11968 -0.0914,0.1479 -0.27703,0.2004 -0.41249,0.11668 -0.36048,-0.22278 -0.30069,0.24373 0.0844,0.65878 0.27037,0.2914 0.24373,0.32575 -0.14604,0.18824 -0.2834,-0.1 -0.4112,-0.0621 -0.31511,0.0933 0.22751,0.36812 -0.22811,0.32636 -0.61042,-0.0559 -0.41924,-0.41925 -0.43555,0.13169 -0.0265,0.89598 0.21159,0.39535 0.21159,0.49464 0,0.36387 -0.16579,-0.10246 -0.29098,0.004 -0.29098,0.24827 0,0.23546 0.11907,0.35452 0.26459,0.26458 0.15006,-0.0927 0.26458,0.12955 0.26458,0.51355 0,0.3724 0.12609,0.67708 0.2802,0.67708 0.15411,0 0.20479,0.12201 0.11262,0.27114 -0.0922,0.14912 -0.0694,0.25409 0.0505,0.23325 0.58858,-0.10225 0.84862,0.0621 0.70214,0.44383 -0.1299,0.33852 -0.20555,0.35123 -0.3936,0.0661 -0.18505,-0.28053 -0.32045,-0.24439 -0.66023,0.17625 -0.28466,0.3524 -0.37961,0.38876 -0.28424,0.10884 0.0788,-0.23118 0.0474,-0.8265 -0.0696,-1.32292 -0.17249,-0.73152 -0.21214,-0.55156 -0.20921,0.9495 0.002,1.01865 0.0597,1.63498 0.12835,1.36964 0.0708,-0.27392 0.28046,-0.4227 0.485,-0.34421 0.23309,0.0894 0.30833,0.003 0.21313,-0.24515 -0.17296,-0.45073 0.32248,-0.52087 0.59255,-0.0839 0.10534,0.17045 -0.21678,0.655 -0.74755,1.12448 -0.8461,0.74839 -0.93727,0.96614 -0.98243,2.34631 -0.0438,1.33732 0.0112,1.52135 0.45448,1.52135 0.27734,0 0.50425,0.17859 0.50425,0.39688 0,0.21828 -0.15875,0.39687 -0.35278,0.39687 -0.19403,0 -0.35278,0.11533 -0.35278,0.25628 0,0.14095 0.16323,0.19364 0.36274,0.11709 0.1995,-0.0766 0.43389,0.0462 0.52086,0.27288 0.17465,0.45514 0.7039,0.56604 0.7039,0.1475 z m -1.32291,-1.21893 c 0,-0.0572 -0.1786,-0.10399 -0.39688,-0.10399 -0.21828,0 -0.39687,0.11533 -0.39687,0.25628 0,0.14096 0.17859,0.18775 0.39687,0.10399 0.21828,-0.0838 0.39688,-0.19909 0.39688,-0.25628 z m 1.54075,-0.98581 c 0.0556,-0.28684 -0.0832,-0.43379 -0.39687,-0.4202 -0.29648,0.0128 -0.35069,0.0737 -0.14065,0.15802 0.27931,0.11207 0.27931,0.21283 0,0.5513 -0.28519,0.34561 -0.27607,0.39247 0.0551,0.28308 0.21828,-0.0721 0.43537,-0.32959 0.48242,-0.5722 z m -1.09978,-0.56175 c 0,-0.21188 -0.0992,-0.32391 -0.22049,-0.24896 -0.12126,0.0749 -0.22048,0.2483 -0.22048,0.38523 0,0.13694 0.0992,0.24897 0.22048,0.24897 0.12127,0 0.22049,-0.17336 0.22049,-0.38524 z m 1.01424,-0.67309 c -0.0899,-0.14552 -0.0176,-0.26459 0.16077,-0.26459 0.17836,0 0.25284,-0.0714 0.16551,-0.15878 -0.23765,-0.23765 -0.75551,0.15697 -0.57957,0.44165 0.0837,0.13547 0.21176,0.2463 0.28452,0.2463 0.0728,0 0.0587,-0.11906 -0.0312,-0.26458 z m 0.39687,-1.5875 c 0,-0.14552 -0.12609,-0.26459 -0.2802,-0.26459 -0.15411,0 -0.20661,0.11907 -0.11667,0.26459 0.0899,0.14552 0.21602,0.26458 0.28019,0.26458 0.0642,0 0.11668,-0.11906 0.11668,-0.26458 z m -37.061213,-2.5371 c -0.170405,-0.20532 -0.444077,-0.3697 -0.60816,-0.36527 -0.164083,0.004 -0.08747,0.1308 0.170253,0.28084 0.257722,0.15004 0.388154,0.40294 0.289849,0.562 -0.109728,0.17755 -0.05584,0.21325 0.139574,0.0925 0.24374,-0.15064 0.245727,-0.28419 0.0085,-0.57005 z m -1.734835,-1.22304 c -0.100746,-0.16301 -0.251442,-0.12686 -0.391304,0.0939 -0.205951,0.32503 -0.275143,0.25786 -0.212964,-0.20675 0.02419,-0.18074 -0.572093,-0.61413 -0.854186,-0.62085 -0.09357,-0.002 -0.236336,0.16848 -0.317255,0.37935 -0.103308,0.26922 -0.02002,0.33463 0.27968,0.21962 0.270686,-0.10387 0.361353,-0.0579 0.247869,0.12574 -0.0987,0.15971 0.03014,0.33593 0.287326,0.39301 0.642135,0.14252 1.158657,-0.0639 0.960834,-0.38399 z m 38.955078,-1.41156 c 0.093,-0.37058 0.0953,-0.74761 0.005,-0.83785 -0.0902,-0.0902 -0.16407,0.0344 -0.16407,0.27691 0,0.27182 -0.22835,0.45274 -0.59531,0.47166 -0.50446,0.026 -0.51879,0.0503 -0.0939,0.15909 0.40289,0.10317 0.42888,0.17433 0.13229,0.36213 -0.29624,0.18758 -0.27869,0.23454 0.0888,0.23779 0.2719,0.002 0.52669,-0.26971 0.62709,-0.66973 z m -0.13739,-2.50122 c 0.13362,0 0.24294,-0.17859 0.24294,-0.39687 0,-0.50583 -0.49933,-0.51789 -0.69165,-0.0167 -0.084,0.21883 -0.32345,0.31203 -0.56427,0.21962 -0.28753,-0.11033 -0.35506,-0.0581 -0.21592,0.16704 0.11135,0.18017 0.37874,0.25993 0.5942,0.17725 0.21547,-0.0827 0.50108,-0.15033 0.6347,-0.15033 z m -1.47685,-0.79375 c -0.0899,-0.14552 0.0746,-0.26458 0.36565,-0.26458 0.29104,0 0.58943,-0.0975 0.6631,-0.21671 0.0737,-0.11919 -0.21697,-0.16521 -0.64585,-0.10226 -0.71438,0.10485 -1.1522,0.84814 -0.49957,0.84814 0.1541,0 0.20661,-0.11907 0.11667,-0.26459 z m 1.12448,-1.03809 c 0.32742,-0.0111 0.59531,-0.14218 0.59531,-0.29122 0,-0.15039 -0.45125,-0.23869 -1.01408,-0.19843 -0.55775,0.0399 -1.01415,0.20791 -1.01424,0.37338 -8e-5,0.16546 0.18837,0.26387 0.41878,0.21868 0.2304,-0.0452 0.68681,-0.0913 1.01423,-0.10241 z m -0.83785,-1.34316 c 0.20616,0 0.37483,-0.17859 0.37483,-0.39687 0,-0.21828 0.17859,-0.39688 0.39688,-0.39688 0.21828,0 0.39687,-0.10791 0.39687,-0.23981 0,-0.1319 -0.25674,-0.17267 -0.57054,-0.0906 -0.37494,0.098 -0.50904,0.0497 -0.39116,-0.14105 0.11047,-0.17875 -0.0325,-0.27429 -0.3721,-0.24871 -0.49932,0.0376 -0.50987,0.072 -0.11152,0.36326 0.41146,0.30086 0.31176,1.03434 -0.10554,0.77644 -0.10526,-0.065 -0.20396,0.14137 -0.21933,0.45871 -0.0154,0.31734 0.0294,0.42815 0.0994,0.24625 0.0701,-0.1819 0.29605,-0.33073 0.5022,-0.33073 z m 0.904,0.26459 c 0.48365,-0.31256 0.0659,-0.31256 -0.66146,0 -0.34892,0.14993 -0.39398,0.23234 -0.13229,0.24193 0.21828,0.008 0.57547,-0.10087 0.79375,-0.24193 z m 0,-2.51355 c 0.24545,-0.29575 0.24973,-0.39687 0.0168,-0.39687 -0.17193,0 -0.23781,-0.12101 -0.14641,-0.2689 0.0914,-0.14789 0.27703,-0.2004 0.41249,-0.11668 0.13547,0.0837 0.2463,-0.0519 0.2463,-0.30127 0,-0.42162 -0.0368,-0.42023 -0.52292,0.0197 -0.28761,0.26029 -0.45918,0.5764 -0.38126,0.70247 0.0779,0.12607 -0.044,0.22922 -0.27083,0.22922 -0.22687,0 -0.41249,0.11906 -0.41249,0.26459 0,0.40183 0.68624,0.31605 1.05834,-0.1323 z m -0.79375,-1.05505 c 0,-0.0917 -0.11005,-0.0988 -0.24456,-0.0157 -0.13451,0.0831 -0.29566,-0.0587 -0.35812,-0.31511 -0.0625,-0.25644 -0.11315,-0.0887 -0.11265,0.37286 7.8e-4,0.70446 0.0583,0.7818 0.35813,0.48192 0.19646,-0.19646 0.3572,-0.43226 0.3572,-0.52401 z m 0.79375,-0.68035 c 0,-0.13694 -0.11907,-0.24897 -0.26459,-0.24897 -0.14552,0 -0.26458,0.18562 -0.26458,0.41249 0,0.22687 0.11906,0.3389 0.26458,0.24897 0.14552,-0.0899 0.26459,-0.27556 0.26459,-0.41249 z m 0.40775,-0.79574 c 0.28476,-0.46076 -0.0396,-0.55834 -0.40245,-0.12108 -0.20869,0.25145 -0.22876,0.40327 -0.0533,0.40327 0.15475,0 0.35984,-0.12699 0.45576,-0.28219 z m -1.46609,-0.24698 c 0,-0.14552 -0.11906,-0.26458 -0.26458,-0.26458 -0.14552,0 -0.26458,0.11906 -0.26458,0.26458 0,0.14552 0.11906,0.26458 0.26458,0.26458 0.14552,0 0.26458,-0.11906 0.26458,-0.26458 z m 0.92605,-0.26458 c 0.0899,-0.14553 0.0374,-0.26459 -0.11668,-0.26459 -0.15411,0 -0.2802,0.11906 -0.2802,0.26459 0,0.14552 0.0525,0.26458 0.11668,0.26458 0.0642,0 0.19026,-0.11906 0.2802,-0.26458 z m -0.81752,-0.69027 c -0.16052,-0.0664 0.10884,-0.54048 0.60757,-1.06929 0.85271,-0.90413 1.06707,-1.64891 0.23514,-0.81698 -0.21828,0.21828 -0.32317,0.47058 -0.23308,0.56066 0.0901,0.0901 -0.0417,0.16379 -0.2928,0.16379 -0.28846,0 -0.38783,0.12178 -0.26986,0.33073 0.13238,0.23449 0.0792,0.22902 -0.18283,-0.0188 -0.31396,-0.29694 -0.27006,-0.43243 0.29192,-0.90086 0.64403,-0.53683 0.64577,-0.54744 0.0661,-0.40287 -0.7374,0.18393 -0.76781,-0.09 -0.0661,-0.59572 0.59887,-0.43164 0.69084,-0.95649 0.19843,-1.13235 -0.1819,-0.065 -0.2325,-0.22272 -0.11244,-0.35057 0.12207,-0.13 0.33195,-0.0294 0.47617,0.22836 0.14183,0.25344 0.40079,0.45899 0.57546,0.45676 0.21599,-0.003 0.20275,-0.0768 -0.0414,-0.23151 -0.25025,-0.15856 -0.27028,-0.28228 -0.0661,-0.40844 0.16106,-0.0995 0.29283,-0.30004 0.29283,-0.44556 0,-0.14552 -0.11997,-0.19043 -0.26661,-0.0998 -0.14664,0.0906 -0.45847,-0.0271 -0.69296,-0.26157 -0.23448,-0.23448 -0.49801,-0.35466 -0.58562,-0.26706 -0.0876,0.0876 0.0159,0.27187 0.22994,0.40948 0.31831,0.20462 0.27964,0.28022 -0.21226,0.41496 -0.56039,0.1535 -0.56967,0.18802 -0.13581,0.50526 0.43332,0.31685 0.43537,0.37434 0.0295,0.82743 -0.3086,0.34452 -0.41482,0.87379 -0.3632,1.80983 0.0855,1.54982 0.0559,1.46083 0.47565,1.43432 0.2068,-0.0131 0.22268,-0.0656 0.0424,-0.14021 z m 1.47897,-2.74932 c 0,-0.14552 -0.11203,-0.26458 -0.24896,-0.26458 -0.13694,0 -0.32256,0.11906 -0.41249,0.26458 -0.0899,0.14552 0.0221,0.26459 0.24896,0.26459 0.22687,0 0.41249,-0.11907 0.41249,-0.26459 z m -0.0253,-3.02393 c -0.23676,-0.23676 -2.09134,-0.40586 -2.09134,-0.19069 0,0.11041 0.50246,0.2304 1.11658,0.26663 0.61413,0.0362 1.05277,0.002 0.97476,-0.0759 z m -1.23145,-1.01619 c -0.65597,-0.302 -0.8335,-0.79717 -0.19843,-0.55347 0.21828,0.0838 0.39687,0.0458 0.39687,-0.0843 0,-0.13012 -0.23617,-0.25437 -0.52481,-0.27611 -0.38813,-0.0292 -0.51234,0.11121 -0.47692,0.53923 0.0348,0.42099 0.23201,0.58831 0.72325,0.61375 0.66905,0.0346 0.6698,0.0324 0.08,-0.2391 z m 0.65486,-1.25154 c 0.0423,-0.56221 -0.25919,-0.63358 -1.11788,-0.26459 -0.51018,0.21923 -0.50836,0.22806 0.0505,0.24599 0.31884,0.0102 0.65329,0.13766 0.74322,0.28318 0.23126,0.37418 0.27894,0.33526 0.32413,-0.26458 z m -0.45642,-0.92605 c 0,-0.0388 -0.23812,-0.13284 -0.52917,-0.20895 -0.33071,-0.0865 -0.52916,-0.008 -0.52916,0.20895 0,0.21708 0.19845,0.29544 0.52916,0.20896 0.29105,-0.0761 0.52917,-0.17014 0.52917,-0.20896 z m 0.79375,-0.92604 c 0.21828,-0.14106 0.33734,-0.26822 0.26458,-0.28258 -0.70474,-0.13904 -1.27553,-0.11938 -1.1767,0.0405 0.0669,0.10828 -0.0279,0.25717 -0.21071,0.33087 -0.18281,0.0737 -0.0942,0.14158 0.19679,0.15084 0.29104,0.009 0.70776,-0.0986 0.92604,-0.23965 z m -1.45521,-0.26458 c 0.0899,-0.14552 0.0374,-0.26458 -0.11667,-0.26458 -0.15411,0 -0.2802,0.11906 -0.2802,0.26458 0,0.14552 0.0525,0.26458 0.11667,0.26458 0.0642,0 0.19027,-0.11906 0.2802,-0.26458 z m -0.0494,-2.35726 c -0.10898,-0.34547 -0.0853,-0.35406 0.1323,-0.048 0.14578,0.20508 0.20053,0.56227 0.12165,0.79375 -0.12699,0.37269 -0.10148,0.37544 0.22292,0.024 0.20148,-0.21828 0.60445,-0.61167 0.89549,-0.87419 0.37967,-0.34247 0.408,-0.43161 0.10029,-0.31553 -0.26543,0.10013 -0.49346,-0.006 -0.59832,-0.27974 -0.12181,-0.31745 -0.0594,-0.39933 0.22197,-0.29135 0.21527,0.0826 0.47314,0.0179 0.57305,-0.14371 0.11831,-0.19143 0.0595,-0.21839 -0.16878,-0.0773 -0.25541,0.15785 -0.30398,0.0955 -0.17913,-0.22983 0.14402,-0.37531 0.088,-0.4018 -0.35191,-0.16638 -0.34055,0.18225 -0.52321,0.18729 -0.52321,0.0144 0,-0.14607 -0.1786,-0.19705 -0.39688,-0.11329 -0.21828,0.0838 -0.39687,0.25488 -0.39687,0.38027 0,0.12538 0.19812,0.15194 0.44028,0.059 0.29603,-0.1136 0.3776,-0.0675 0.24896,0.14059 -0.10522,0.17025 -0.078,0.30955 0.0606,0.30955 0.13854,0 0.32148,0.18135 0.40653,0.403 0.12617,0.32878 0.0583,0.35143 -0.36857,0.12298 -0.28776,-0.15401 -0.53678,-0.24606 -0.55338,-0.20456 -0.0166,0.0415 -0.0712,0.43171 -0.12136,0.86714 -0.0607,0.52692 -0.0146,0.66767 0.13798,0.42087 0.12605,-0.20395 0.16943,-0.56021 0.0964,-0.79169 z m 0.12719,-2.33909 c -0.0744,-0.44278 0.0351,-0.4933 1.22312,-0.5648 0.82534,-0.0497 0.25293,-0.35973 -0.77987,-0.42243 -0.52411,-0.0318 -0.81327,0.0285 -0.64257,0.13395 0.2236,0.1382 0.2285,0.24241 0.0175,0.3728 -0.3712,0.22941 -0.3838,0.9435 -0.0166,0.9435 0.1519,0 0.2412,-0.20836 0.19844,-0.46302 z m 1.3991,0.19843 c 0.13362,0 0.24294,-0.10255 0.24294,-0.22789 0,-0.12534 -0.29765,-0.17099 -0.66145,-0.10145 -0.36381,0.0695 -0.66146,0.24437 -0.66146,0.38849 0,0.14413 0.18833,0.18978 0.41851,0.10145 0.23019,-0.0883 0.52784,-0.1606 0.66146,-0.1606 z m -0.37442,-1.71979 c 0,-0.21828 -0.0992,-0.39687 -0.22048,-0.39687 -0.12127,0 -0.22049,0.17859 -0.22049,0.39687 0,0.21828 0.0992,0.39688 0.22049,0.39688 0.12126,0 0.22048,-0.1786 0.22048,-0.39688 z m -0.70555,-0.58578 c 0,-0.26302 0.15617,-0.34249 0.46302,-0.23563 0.41431,0.14429 0.41882,0.12639 0.0429,-0.17013 -0.23105,-0.18225 -0.37957,-0.45137 -0.33004,-0.59803 0.0495,-0.14666 -0.14837,-0.41556 -0.4398,-0.59755 -0.29142,-0.182 -0.52985,-0.22075 -0.52985,-0.0861 0,0.13463 0.14883,0.30517 0.33073,0.37898 0.25471,0.10335 0.24588,0.19348 -0.0384,0.39212 -0.30178,0.21087 -0.28108,0.27489 0.1134,0.35088 0.45174,0.087 0.45419,0.12128 0.0384,0.53706 -0.55041,0.5504 -0.56902,0.77782 -0.0473,0.5776 0.21828,-0.0838 0.39688,-0.33089 0.39688,-0.54917 z m 1.32291,-1.82787 c 0,-0.21238 -0.27601,-0.36447 -0.66145,-0.36447 -0.36381,0 -0.66146,0.10791 -0.66146,0.23981 0,0.1319 0.26789,0.17523 0.59531,0.0963 0.48798,-0.11765 0.53569,-0.0798 0.26458,0.20997 -0.46607,0.49816 -0.41291,0.90983 0.0662,0.51225 0.21828,-0.18116 0.39687,-0.49339 0.39687,-0.69386 z m 16.35307,-0.76835 c -0.0815,-0.0815 -0.2294,0.0654 -0.32876,0.32632 -0.14359,0.37708 -0.1132,0.40747 0.14811,0.14811 0.18082,-0.17947 0.26211,-0.39297 0.18065,-0.47443 z m -17.03762,-0.14043 c 0.62692,-0.14987 0.67843,-0.20157 0.22153,-0.22236 -0.32742,-0.0149 -0.59531,-0.16599 -0.59531,-0.33576 0,-0.16978 -0.0783,-0.23034 -0.17409,-0.13459 -0.0957,0.0958 -0.33388,0.0415 -0.52917,-0.12059 -0.28439,-0.23602 -0.35507,-0.12712 -0.35507,0.54707 0,0.57234 0.0985,0.78091 0.30763,0.65164 0.1692,-0.10457 0.67522,-0.27801 1.12448,-0.38541 z m 0.44202,-1.37869 c 0.0849,0.0228 0.15434,-0.11354 0.15434,-0.30305 0,-0.26396 -0.17497,-0.24505 -0.74798,0.0808 -0.41139,0.23397 -0.74873,0.51889 -0.74965,0.63315 -9.2e-4,0.11426 0.26621,0.0592 0.59364,-0.12236 0.32742,-0.18155 0.66476,-0.31142 0.74965,-0.28859 z m -0.56361,-0.57561 c 0.25978,-0.31301 0.21788,-0.37447 -0.23219,-0.34057 -0.30204,0.0228 -0.54917,0.19463 -0.54917,0.38194 0,0.45286 0.38824,0.43231 0.78136,-0.0414 z m 0.21083,-0.8659 c -0.40018,-0.0606 -0.7276,-0.22138 -0.7276,-0.35723 0,-0.13586 -0.1786,-0.24701 -0.39688,-0.24701 -0.21828,0 -0.39687,0.11033 -0.39687,0.24518 0,0.2901 0.66592,0.4907 1.5875,0.47823 0.6097,-0.008 0.60452,-0.0176 -0.0661,-0.11917 z m -0.12399,-1.06726 c -0.14511,-0.38721 -0.10764,-0.40956 0.22879,-0.1365 0.32599,0.26458 0.40232,0.25203 0.40232,-0.0661 0,-0.47549 -0.87666,-0.52734 -1.04731,-0.0619 -0.097,0.26459 -0.19138,0.26459 -0.47184,0 -0.25319,-0.23886 -0.26238,-0.33073 -0.0331,-0.33073 0.17462,0 0.3175,-0.13364 0.3175,-0.29698 0,-0.20518 -0.12267,-0.19517 -0.39688,0.0324 -0.53352,0.44279 -0.50166,0.99215 0.0662,1.14053 0.92842,0.24262 1.11001,0.18808 0.93434,-0.28063 z m 0.7193,-1.50611 c 0,-0.19273 -0.23812,-0.41268 -0.52916,-0.48879 -0.29104,-0.0761 -0.52917,-0.0305 -0.52917,0.10144 0,0.13189 -0.13891,0.23981 -0.30868,0.23981 -0.16977,0 -0.23034,-0.0783 -0.13459,-0.17409 0.0957,-0.0957 0.0392,-0.33661 -0.12561,-0.53523 -0.24071,-0.29003 -0.20119,-0.32414 0.20073,-0.17324 0.44462,0.16693 0.45935,0.13738 0.13201,-0.26492 -0.20264,-0.24904 -0.29193,-0.52931 -0.19844,-0.6228 0.0935,-0.0935 0.17,-0.0368 0.17,0.12605 0,0.16283 0.29765,0.0202 0.66146,-0.31697 0.81663,-0.75683 0.83068,-0.9545 0.0661,-0.93062 -0.56803,0.0177 -0.57106,0.029 -0.0661,0.24599 0.37784,0.16236 0.41567,0.24167 0.13229,0.27732 -0.52418,0.0659 -0.58025,0.0581 -1.14261,-0.16069 -0.43732,-0.17011 -0.47396,-0.0424 -0.40236,1.40253 0.0718,1.44938 0.13139,1.58969 0.67476,1.58969 0.32779,0 0.53159,-0.10418 0.45289,-0.23151 -0.0787,-0.12733 0.0553,-0.23151 0.29772,-0.23151 0.28967,0 0.38677,0.14078 0.28323,0.41062 -0.0904,0.23546 -0.046,0.34166 0.10398,0.24897 0.14386,-0.0889 0.26155,-0.31933 0.26155,-0.51205 z m -0.13229,-0.94129 c -0.0899,-0.14552 -0.30532,-0.26276 -0.47863,-0.26053 -0.18934,0.002 -0.15671,0.10642 0.0818,0.26053 0.50829,0.32849 0.59989,0.32849 0.39687,0 z m 16.41117,-0.74265 c -0.0815,-0.0815 -0.29496,-1.7e-4 -0.47443,0.18065 -0.25936,0.26131 -0.22897,0.2917 0.14811,0.14811 0.26094,-0.0993 0.40778,-0.2473 0.32632,-0.32876 z m -16.27888,-0.0511 c 0,-0.14552 -0.0525,-0.26458 -0.11667,-0.26458 -0.0642,0 -0.19026,0.11906 -0.2802,0.26458 -0.0899,0.14552 -0.0374,0.26458 0.11668,0.26458 0.1541,0 0.28019,-0.11906 0.28019,-0.26458 z m -0.11494,-1.63675 c 0.11223,0.0998 0.01,-0.10633 -0.22723,-0.45816 -0.40047,-0.59399 -0.39896,-0.66335 0.0212,-0.97056 0.24886,-0.18197 0.37355,-0.40976 0.2771,-0.50621 -0.24548,-0.24548 -1.32598,0.37122 -1.14982,0.65626 0.0792,0.12816 0.004,0.3194 -0.16655,0.42497 -0.21423,0.1324 -0.26508,0.018 -0.16393,-0.36886 0.0837,-0.32011 -0.012,-0.69246 -0.2229,-0.86752 -0.30713,-0.2549 -0.36956,-0.10382 -0.36956,0.89426 0,1.2879 0.28575,1.57236 1.22956,1.22397 0.31246,-0.11533 0.65993,-0.128 0.77216,-0.0281 z m -1.47256,-0.19533 c 0,-0.12538 0.1786,-0.2965 0.39688,-0.38027 0.21828,-0.0838 0.39687,-0.0497 0.39687,0.0757 0,0.12538 -0.17859,0.29651 -0.39687,0.38027 -0.21828,0.0838 -0.39688,0.0497 -0.39688,-0.0757 z m 1.27041,-2.89578 c -0.0173,-0.0918 0.0597,-0.37529 0.1711,-0.62995 0.29377,-0.67136 -0.015,-1.27189 -0.57159,-1.11184 -0.26017,0.0748 -0.20515,-0.005 0.12227,-0.17718 0.65849,-0.34644 0.81352,-1.41491 0.23737,-1.63599 -0.24956,-0.0958 -0.33676,0.0555 -0.288,0.49972 0.0856,0.78017 -0.39218,1.13886 -0.72496,0.54421 -0.13359,-0.23872 -0.3858,-0.4322 -0.56047,-0.42997 -0.19873,0.003 -0.16906,0.10909 0.0793,0.28472 0.29867,0.21122 0.31503,0.31389 0.0662,0.41487 -0.1819,0.0738 -0.33073,0.25792 -0.33073,0.40913 0,0.17077 0.1447,0.15484 0.38194,-0.042 0.31177,-0.25874 0.37474,-0.22143 0.34276,0.20312 -0.0232,0.30809 -0.1789,0.46648 -0.38194,0.38857 -0.18852,-0.0723 -0.34276,-0.0125 -0.34276,0.13305 0,0.14552 0.17859,0.33312 0.39687,0.41688 0.44975,0.17259 0.54551,0.96265 0.11668,0.96265 -0.15411,0 -0.2117,-0.11083 -0.12798,-0.2463 0.0837,-0.13546 0.0312,-0.32108 -0.11667,-0.41249 -0.47117,-0.29119 -0.28842,0.71843 0.19412,1.07245 0.38286,0.28089 0.54136,0.26904 0.91554,-0.0685 0.24888,-0.2245 0.43834,-0.4833 0.42101,-0.57512 z m -0.56299,-0.67175 c -0.14888,-0.38796 0.0227,-0.68581 0.39501,-0.68581 0.29548,0 0.28243,0.72424 -0.0164,0.90891 -0.13027,0.0805 -0.30066,-0.0199 -0.37864,-0.2231 z m -0.0262,-2.50595 c -0.19769,-0.31988 -1.21036,-0.56347 -1.21036,-0.29115 0,0.12122 0.20836,0.27486 0.46302,0.34141 0.77021,0.20128 0.89751,0.19272 0.74734,-0.0503 z m 0.9057,-1.28871 c 3.3e-4,-0.32742 -0.12549,-0.59531 -0.27959,-0.59531 -0.15411,0 -0.20662,0.11906 -0.11668,0.26458 0.16096,0.26045 -0.34783,0.3858 -1.25677,0.30963 -0.52891,-0.0443 -0.63141,0.38315 -0.13229,0.55173 0.1819,0.0614 0.65788,0.10112 1.05773,0.0882 0.57038,-0.0184 0.72713,-0.15176 0.7276,-0.61882 z m -1.41715,-0.79375 c -0.0503,-0.25466 -0.22064,-0.76068 -0.37844,-1.12448 -0.2663,-0.6139 -0.28814,-0.58061 -0.3037,0.46302 -0.0124,0.82854 0.0872,1.12448 0.37844,1.12448 0.23487,0 0.35809,-0.18785 0.3037,-0.46302 z m 0.7563,-0.0661 c 0.0899,-0.14552 -0.0291,-0.26458 -0.26459,-0.26458 -0.23546,0 -0.35452,0.11906 -0.26458,0.26458 0.0899,0.14552 0.209,0.26459 0.26458,0.26459 0.0556,0 0.17465,-0.11907 0.26459,-0.26459 z m 0.57326,-0.94772 c 0,-0.19383 -0.16493,-0.41571 -0.36652,-0.49307 -0.20159,-0.0773 -0.30149,-0.0354 -0.22201,0.0932 0.0795,0.12861 -0.0396,0.30448 -0.26458,0.39082 -0.225,0.0863 -0.34144,0.0475 -0.25875,-0.0863 0.0827,-0.1338 0.0294,-0.31805 -0.11855,-0.40946 -0.27498,-0.16995 -0.38485,0.45464 -0.12558,0.71392 0.29398,0.29397 1.35599,0.1302 1.35599,-0.2091 z m -1.84773,-4.39355 c -0.0845,-0.21107 -0.14716,-0.14837 -0.15985,0.15985 -0.0115,0.27892 0.051,0.43519 0.13896,0.34727 0.0879,-0.0879 0.0973,-0.31613 0.0209,-0.50712 z m 18.34009,0.47479 c 0,-0.0572 -0.18478,-0.17489 -0.41062,-0.26155 -0.23546,-0.0904 -0.34166,-0.046 -0.24897,0.10398 0.15538,0.25141 0.65959,0.37186 0.65959,0.15757 z m -1.5875,-1.08664 c 0,-0.0416 -0.15875,-0.1366 -0.35278,-0.21105 -0.19403,-0.0745 -0.35278,0.0205 -0.35278,0.21105 0,0.19053 0.15875,0.28551 0.35278,0.21105 0.19403,-0.0745 0.35278,-0.16943 0.35278,-0.21105 z m 1.32292,-0.24897 c 0,-0.0642 -0.11907,-0.19026 -0.26459,-0.2802 -0.14552,-0.0899 -0.26458,-0.0374 -0.26458,0.11668 0,0.15411 0.11906,0.2802 0.26458,0.2802 0.14552,0 0.26459,-0.0525 0.26459,-0.11668 z m -0.004,-1.31585 c -0.17135,-0.17135 -0.35026,-0.17135 -0.52161,0 -0.17135,0.17135 -0.0819,0.2608 0.2608,0.2608 0.3427,0 0.43216,-0.0894 0.26081,-0.2608 z m -16.78408,-1.72114 c -0.0827,-0.13379 0.0297,-0.42331 0.24978,-0.64337 0.3571,-0.3571 0.34273,-0.41834 -0.1337,-0.56955 -0.2936,-0.0932 -0.46196,-0.2857 -0.37413,-0.42781 0.10196,-0.16498 0.28268,-0.1563 0.49993,0.024 0.26185,0.21731 0.34025,0.12993 0.34025,-0.3792 0,-0.36387 -0.10172,-0.59872 -0.22604,-0.52188 -0.12433,0.0768 -0.46663,0.0109 -0.76068,-0.14643 -0.44338,-0.23729 -0.53533,-0.2055 -0.53869,0.1862 -0.003,0.36445 -0.0558,0.39067 -0.23062,0.1148 -0.16071,-0.25361 -0.26157,-0.11902 -0.347,0.46302 -0.11515,0.78462 -0.079,0.82137 0.82594,0.83915 0.744,0.0146 0.83321,0.0634 0.41719,0.22797 -0.29104,0.11515 -0.67799,0.15358 -0.85989,0.0854 -0.1819,-0.0682 -0.33073,0.008 -0.33073,0.1689 0,0.16109 0.2311,0.29289 0.51355,0.29289 0.28245,0 0.58714,0.11907 0.67707,0.26459 0.0899,0.14552 0.22306,0.26458 0.29582,0.26458 0.0728,0 0.0646,-0.10946 -0.0181,-0.24325 z m -1.20381,-1.44414 c 0,-0.055 0.20836,-0.2633 0.46302,-0.46302 0.41965,-0.32911 0.429,-0.31975 0.0999,0.0999 -0.34565,0.44073 -0.56292,0.58089 -0.56292,0.36313 z m 18.38854,-0.42928 c -0.0899,-0.14552 -0.42438,-0.25621 -0.74322,-0.24598 -0.55889,0.0179 -0.56071,0.0267 -0.0505,0.24598 0.72826,0.31295 0.98716,0.31295 0.79375,0 z m -1.26228,-0.9536 c -0.0879,-0.0879 -0.31612,-0.0973 -0.50712,-0.0209 -0.21107,0.0845 -0.14837,0.14716 0.15985,0.15986 0.27892,0.0115 0.43519,-0.0511 0.34727,-0.13897 z m 0.46853,-0.6339 c -0.0899,-0.14552 -0.42438,-0.25271 -0.74322,-0.2382 -0.53964,0.0246 -0.53399,0.041 0.0818,0.2382 0.36381,0.11651 0.69825,0.22371 0.74322,0.23821 0.045,0.0145 0.008,-0.0927 -0.0818,-0.23821 z m 0.75276,-0.67286 c -0.0862,-0.22456 -0.21342,-0.35155 -0.28277,-0.28219 -0.0694,0.0694 -0.0476,0.25308 0.0483,0.40829 0.26089,0.42213 0.41338,0.34012 0.23447,-0.1261 z m 0.17328,-0.75404 c 0,-0.0572 -0.17859,-0.17251 -0.39687,-0.25628 -0.21828,-0.0838 -0.39688,-0.037 -0.39688,0.10399 0,0.14095 0.1786,0.25628 0.39688,0.25628 0.21828,0 0.39687,-0.0468 0.39687,-0.10399 z m -0.79375,-2.92311 c 0,-0.0642 -0.11906,-0.19026 -0.26458,-0.28019 -0.14552,-0.0899 -0.26458,-0.0374 -0.26458,0.11667 0,0.15411 0.11906,0.2802 0.26458,0.2802 0.14552,0 0.26458,-0.0525 0.26458,-0.11668 z m 0.66468,-1.95267 c -0.21024,-0.21024 -0.66515,0.26703 -0.50363,0.52838 0.10987,0.17777 0.24622,0.15071 0.38681,-0.0768 0.11941,-0.19323 0.17198,-0.39645 0.11682,-0.45162 z m -0.13551,-0.41333 c 0,-0.0558 -0.23829,-0.16375 -0.52953,-0.23991 -0.29124,-0.0762 -0.46281,-0.0305 -0.38126,0.10143 0.14241,0.23043 0.91079,0.34725 0.91079,0.13848 z m 0.18951,-2.74284 c -0.0606,-0.40018 -0.11022,-0.0728 -0.11022,0.72761 0,0.80036 0.0496,1.12778 0.11022,0.7276 0.0606,-0.40018 0.0606,-1.05503 0,-1.45521 z m -0.58639,-0.59531 c -0.0899,-0.14552 -0.30532,-0.26276 -0.47863,-0.26053 -0.18934,0.002 -0.15671,0.10642 0.0818,0.26053 0.5083,0.32849 0.59989,0.32849 0.39687,0 z m 0.92605,-0.52917 c 0,-0.14552 -0.12609,-0.26458 -0.2802,-0.26458 -0.15411,0 -0.20662,0.11906 -0.11668,0.26458 0.0899,0.14552 0.21603,0.26459 0.2802,0.26459 0.0642,0 0.11668,-0.11907 0.11668,-0.26459 z m 0.20773,-1.28453 c 0.0888,-0.26639 -0.0415,-0.30973 -0.50716,-0.1687 -0.95033,0.28784 -1.10625,0.55323 -0.31695,0.53947 0.38756,-0.007 0.7584,-0.1736 0.82411,-0.37077 z m 0.96555,-2.33756 c 0.10803,-0.28152 0.0249,-0.29853 -0.38549,-0.0789 -0.62326,0.33356 -0.65605,0.43779 -0.13772,0.43779 0.21202,0 0.44746,-0.16151 0.52321,-0.3589 z m -37.818073,75.4156 c -7.041047,-1.48716 -11.152189,-3.67768 -16.032587,-8.54255 -3.503431,-3.4923 -3.224043,-3.10637 -16.900339,-23.34505 l -10.132963,-14.99513 -2.025434,2.16284 c -1.113989,1.18956 -2.653856,2.8377 -3.421927,3.66253 l -1.396492,1.49969 0.09845,11.3326 c 0.0867,9.98029 0.154768,11.50625 0.570411,12.78781 1.402067,4.32302 5.281276,7.22885 10.148696,7.60217 l 1.918229,0.14712 v 1.54931 1.54932 H 38.227631 15.460262 l 0.07935,-1.52136 0.07935,-1.52135 1.780177,-0.17602 c 4.383258,-0.4334 7.995522,-2.5913 9.747761,-5.82314 l 0.907478,-1.67376 0.08149,-33.99896 c 0.06076,-25.35263 0.0023,-34.369028 -0.230068,-35.454161 -0.913316,-4.265927 -4.009961,-7.225365 -8.714958,-8.328812 -0.945885,-0.221835 -2.166276,-0.468061 -2.711979,-0.547168 l -0.992188,-0.143831 v -1.310927 -1.310928 h 22.303727 l 22.303726,0 -0.01258,1.323298 c -0.01242,1.306033 -0.02466,1.325138 -0.938624,1.464308 -1.791726,0.272828 -4.030614,0.938996 -5.274856,1.569501 -1.748914,0.886242 -3.637872,2.805755 -4.400609,4.471793 -1.065617,2.327613 -1.197077,4.617489 -1.115954,19.438487 l 0.07579,13.84759 7.438167,-8.15905 c 4.090992,-4.48748 9.21068,-10.12032 11.377083,-12.51742 2.166403,-2.3971 4.985119,-5.47768 6.263813,-6.845727 3.689409,-3.947231 4.68656,-5.703105 4.68656,-8.252525 0,-1.084886 -0.114801,-1.362731 -0.801966,-1.940942 -0.839739,-0.706594 -2.0065,-1.125536 -3.894388,-1.398336 l -1.124479,-0.162487 v -1.419245 -1.419245 h 18.256249 18.256248 v 1.421393 1.421392 l -1.12448,0.175194 c -6.10586,0.951291 -13.803577,5.415073 -19.618184,11.376262 -1.149247,1.178216 -5.604684,5.892686 -9.900971,10.476596 -4.296287,4.5839 -8.222745,8.77142 -8.725462,9.3056 l -0.914032,0.97123 2.726688,4.05585 c 2.621054,3.89873 10.229104,15.08491 18.594175,27.33919 7.042096,10.3162 10.648026,14.86963 14.405576,18.19077 1.79726,1.58852 5.40059,4.10991 6.7395,4.7159 0.72155,0.32657 0.72761,0.35079 0.72761,2.91141 v 2.5821 l -1.26245,0.41931 c -2.43591,0.80908 -5.37059,1.21098 -8.61656,1.18002 -1.76982,-0.0169 -3.455992,-0.081 -3.747033,-0.14246 z M 30.68151,166.4638 l 0.173066,-0.66146 -0.398536,0.66146 c -0.444163,0.73718 -0.56004,1.31695 -0.182442,0.91281 0.129165,-0.13824 0.312725,-0.54901 0.407912,-0.91281 z m 2.142458,-1.48443 c 0.128139,-0.58313 0.101106,-0.67036 -0.113931,-0.36765 -0.155063,0.21828 -0.283755,0.60523 -0.285984,0.85989 -0.0026,0.29334 -0.222212,0.47427 -0.599364,0.49371 -0.464894,0.024 -0.491466,0.0577 -0.121291,0.15381 0.334232,0.0868 0.432568,0.29233 0.333456,0.69692 -0.07731,0.31558 0.03036,0.20345 0.239274,-0.24918 0.208912,-0.45263 0.45544,-1.16701 0.54784,-1.5875 z m -1.387748,-0.81959 c -0.0769,-0.20041 0.0721,-0.35046 0.360162,-0.3627 0.278514,-0.0118 0.348076,-0.0787 0.160599,-0.15434 -0.197705,-0.0798 -0.344715,-0.68329 -0.365502,-1.50047 l -0.03477,-1.36701 -0.206178,1.76765 c -0.113398,0.97221 -0.288659,2.04378 -0.389468,2.38125 -0.176993,0.59252 -0.169728,0.5958 0.211519,0.0955 0.217143,-0.28494 0.335782,-0.67189 0.263641,-0.85989 z m 1.74684,-1.59858 c -0.01688,-0.54571 -0.08514,-0.78383 -0.151692,-0.52917 -0.06655,0.25466 -0.290864,0.46302 -0.498475,0.46302 -0.297155,0 -0.278953,0.1079 0.08555,0.50712 0.254662,0.27891 0.492787,0.51704 0.529167,0.52916 0.03638,0.0121 0.05233,-0.42443 0.03545,-0.97013 z m 0.03069,-1.80156 c 0,-0.37239 -0.107885,-0.61039 -0.239744,-0.5289 -0.13186,0.0815 -0.177505,0.38618 -0.101433,0.67707 0.19038,0.72802 0.341177,0.66253 0.341177,-0.14817 z m -0.926042,-0.91042 c 0.08994,-0.14552 0.03743,-0.26459 -0.116677,-0.26459 -0.154109,0 -0.280198,0.11907 -0.280198,0.26459 0,0.14552 0.05251,0.26458 0.116677,0.26458 0.06417,0 0.190261,-0.11906 0.280198,-0.26458 z m -0.415471,-1.12448 c 0.01023,-0.10914 -0.100466,-0.19844 -0.245987,-0.19844 -0.145521,0 -0.256215,0.32742 -0.245987,0.7276 0.01648,0.64475 0.04449,0.66735 0.245987,0.19844 0.125065,-0.29104 0.235759,-0.61846 0.245987,-0.7276 z m 1.341513,-0.0818 c 0,-0.66344 -0.09329,-1.14859 -0.207316,-1.07812 -0.20209,0.1249 -0.104897,2.28436 0.102815,2.28436 0.05747,0 0.104501,-0.54281 0.104501,-1.20624 z m -1.322917,-0.64585 c 0,-0.14552 -0.119062,-0.26458 -0.264583,-0.26458 -0.145521,0 -0.264583,0.11906 -0.264583,0.26458 0,0.14552 0.119062,0.26459 0.264583,0.26459 0.145521,0 0.264583,-0.11907 0.264583,-0.26459 z m 0.396875,-1.05833 c 0.348917,-0.14994 0.393979,-0.23235 0.132292,-0.24194 -0.218281,-0.008 -0.575469,0.10088 -0.79375,0.24194 -0.483649,0.31256 -0.0659,0.31256 0.661458,0 z m 0.926042,-1.45521 c 0,-0.3638 -0.04565,-0.66146 -0.101447,-0.66146 -0.0558,0 -0.158348,0.29766 -0.227893,0.66146 -0.06955,0.3638 -0.02389,0.66146 0.101447,0.66146 0.125341,0 0.227893,-0.29766 0.227893,-0.66146 z m -1.323331,-0.39713 c -0.170151,-0.10516 -0.290266,-0.27016 -0.266923,-0.36667 0.02334,-0.0965 -0.01662,-0.32132 -0.08881,-0.49958 -0.07219,-0.17827 -0.140647,0.0591 -0.152135,0.52747 -0.0165,0.67274 0.06712,0.81782 0.398171,0.69079 0.295966,-0.11358 0.328187,-0.21697 0.109693,-0.35201 z m 1.319279,-1.91797 c -0.0028,-0.58464 -0.07707,-0.74465 -0.232154,-0.49988 -0.208039,0.32835 -0.105811,1.35977 0.134773,1.35977 0.05579,0 0.09961,-0.38695 0.09738,-0.85989 z m -1.186573,0.0661 c 0.08994,-0.14552 0.04446,-0.26458 -0.101062,-0.26458 -0.145521,0 -0.338168,0.11906 -0.428105,0.26458 -0.08994,0.14552 -0.04446,0.26459 0.101062,0.26459 0.145521,0 0.338168,-0.11907 0.428105,-0.26459 z m -0.332118,-1.19062 c -0.06955,-0.3638 -0.172097,-0.66146 -0.227893,-0.66146 -0.0558,0 -0.101447,0.29766 -0.101447,0.66146 0,0.3638 0.102551,0.66146 0.227893,0.66146 0.125341,0 0.170992,-0.29766 0.101447,-0.66146 z m 0.993576,0.13229 c 0,-0.14552 -0.0525,-0.26458 -0.116677,-0.26458 -0.06417,0 -0.190261,0.11906 -0.280198,0.26458 -0.08994,0.14552 -0.03743,0.26458 0.116677,0.26458 0.154109,0 0.280198,-0.11906 0.280198,-0.26458 z m -1.142176,-1.63711 c -0.08446,-0.21107 -0.147156,-0.14837 -0.159852,0.15985 -0.01149,0.27892 0.05105,0.43519 0.138964,0.34727 0.08792,-0.0879 0.09732,-0.31612 0.02089,-0.50712 z m 1.671343,-0.73847 c 0,-1.03463 -0.01165,-1.04735 -0.680406,-0.74264 -0.536294,0.24435 -0.725428,0.23716 -0.892969,-0.0339 -0.141028,-0.22819 -0.212563,-0.11458 -0.212563,0.33761 0,0.63926 0.03443,0.65742 0.554966,0.29283 0.798065,-0.55899 0.966389,-0.48844 0.966389,0.40503 0,0.43657 0.05953,0.79375 0.132291,0.79375 0.07276,0 0.132292,-0.47369 0.132292,-1.05266 z m -0.110913,-2.58603 c -0.288225,-0.28822 -0.397622,0.0887 -0.214748,0.73983 l 0.182518,0.6499 0.09295,-0.61803 c 0.05112,-0.33991 0.0238,-0.68718 -0.06072,-0.7717 z m -1.384158,0.0753 c 0.08197,-0.21362 0.03518,-0.45877 -0.103984,-0.54478 -0.139166,-0.086 -0.253028,0.0888 -0.253028,0.3884 0,0.63886 0.147137,0.70331 0.357012,0.15638 z m 1.411228,-1.51329 c -0.08446,-0.21107 -0.147157,-0.14837 -0.159852,0.15985 -0.01149,0.27892 0.05105,0.43519 0.138964,0.34727 0.08792,-0.0879 0.09732,-0.31612 0.02089,-0.50712 z m 0.0064,-1.86553 c -0.06329,-0.32912 -0.117469,-0.12215 -0.120406,0.45993 -0.0029,0.58209 0.04884,0.85136 0.115066,0.5984 0.06622,-0.25297 0.06863,-0.72922 0.0053,-1.05833 z m -0.94713,0.1292 c 0.321288,-0.40967 0.314595,-0.42518 -0.05809,-0.13458 -0.23167,0.18063 -0.518649,0.24017 -0.637731,0.13229 -0.119082,-0.10788 -0.130867,-0.0473 -0.02619,0.13458 0.246006,0.42749 0.289213,0.41957 0.722012,-0.13229 z m -0.349003,-1.42431 c 0.268015,-0.35228 0.254182,-0.46074 -0.07487,-0.58701 -0.298856,-0.11468 -0.403628,0.0261 -0.403628,0.54237 0,0.38349 0.03369,0.64764 0.07487,0.58701 0.04118,-0.0606 0.22281,-0.3047 0.403628,-0.54237 z m 1.289744,-0.0144 c -0.08446,-0.21107 -0.147157,-0.14837 -0.159852,0.15985 -0.01149,0.27892 0.05105,0.43519 0.138964,0.34727 0.08792,-0.0879 0.09732,-0.31612 0.02089,-0.50712 z m 0.08384,-0.87643 c 0,-0.21828 -0.04679,-0.39688 -0.103984,-0.39688 -0.05719,0 -0.172517,0.1786 -0.25628,0.39688 -0.08376,0.21828 -0.03697,0.39687 0.103984,0.39687 0.140954,0 0.25628,-0.17859 0.25628,-0.39687 z m -0.992188,-0.83669 c -0.181901,-0.0734 -0.479557,-0.0734 -0.661458,0 -0.181901,0.0734 -0.03307,0.13345 0.330729,0.13345 0.363802,0 0.51263,-0.06 0.330729,-0.13345 z m 0.902833,-0.68467 c -0.0734,-0.1819 -0.133452,-0.0331 -0.133452,0.33073 0,0.36381 0.06005,0.51263 0.133452,0.33073 0.0734,-0.1819 0.0734,-0.47955 0,-0.66146 z m -1.500899,-0.36067 c -0.02334,-0.0965 0.116555,-0.27626 0.310885,-0.39944 0.270907,-0.17173 0.245318,-0.22491 -0.109694,-0.22802 -0.334699,-0.003 -0.457231,0.19759 -0.442132,0.72355 0.01149,0.40018 0.07995,0.58175 0.152135,0.40349 0.07219,-0.17826 0.112149,-0.40308 0.08881,-0.49958 z m 1.291773,-0.92264 c -0.648529,-0.41082 -0.865701,-0.25082 -0.343125,0.25279 0.280123,0.26996 0.553592,0.37525 0.607709,0.23399 0.05412,-0.14127 -0.06495,-0.36032 -0.264584,-0.48678 z m 0.272107,-1.36252 c -0.02149,-0.91625 -0.06156,-1.00199 -0.216405,-0.46302 -0.176691,0.61503 -0.09011,1.5875 0.141346,1.5875 0.05579,0 0.08957,-0.50602 0.07506,-1.12448 z m -1.539933,-1.71979 c -0.220017,-0.37775 -0.269685,-0.29247 -0.269685,0.46302 0,0.75549 0.04967,0.84077 0.269685,0.46302 0.183191,-0.31452 0.183191,-0.61152 0,-0.92604 z m 0.904849,0.7276 c 0.08994,-0.14552 0.03743,-0.26458 -0.116677,-0.26458 -0.154109,0 -0.280198,0.11906 -0.280198,0.26458 0,0.14552 0.0525,0.26459 0.116676,0.26459 0.06417,0 0.190262,-0.11907 0.280199,-0.26459 z m 0.64057,-0.85989 c -0.01149,-0.32742 -0.08119,-0.44574 -0.15489,-0.26294 -0.0737,0.18281 -0.218814,0.27996 -0.322474,0.2159 -0.103659,-0.0641 -0.361381,0.006 -0.572714,0.1556 -0.315387,0.22333 -0.302789,0.24598 0.0703,0.12639 0.250001,-0.0801 0.524919,-0.0318 0.610928,0.10733 0.256486,0.41501 0.391035,0.29015 0.368845,-0.34228 z m 11.573199,-0.79375 c -0.0734,-0.1819 -0.133452,-0.0331 -0.133452,0.33073 0,0.3638 0.06005,0.51263 0.133452,0.33073 0.0734,-0.1819 0.0734,-0.47956 0,-0.66146 z m -12.492319,0.0436 c -0.08519,-0.13784 -0.255556,-0.18841 -0.378593,-0.11236 -0.123037,0.076 -0.284004,-0.0113 -0.357704,-0.19413 -0.08436,-0.20923 -0.141741,-0.169 -0.15489,0.1086 -0.02113,0.44603 0.470615,0.77453 0.843323,0.56337 0.111515,-0.0632 0.133053,-0.22764 0.04786,-0.36548 z m 0.865285,-1.75971 c -0.06082,-0.40218 -0.1122,-0.13593 -0.114186,0.59168 -0.002,0.7276 0.04777,1.05666 0.110574,0.73124 0.0628,-0.32542 0.06443,-0.92073 0.0036,-1.32292 z m 12.297586,0.1948 c 0.129662,0 0.201573,0.14883 0.159801,0.33073 -0.04177,0.1819 0.04231,0.33073 0.186839,0.33073 0.144533,0 0.233022,-0.0893 0.196642,-0.19844 -0.03638,-0.10914 0.09017,-0.19843 0.281228,-0.19843 0.191056,0 0.697071,-0.37133 1.124479,-0.82517 0.745991,-0.79214 0.751943,-0.81749 0.148659,-0.63312 -0.403822,0.12342 -0.568729,0.0954 -0.461372,-0.0783 0.09189,-0.14868 0.0175,-0.33202 -0.165304,-0.40741 -0.203309,-0.0839 -0.102363,-0.20705 0.259959,-0.31726 0.325785,-0.0991 0.535456,-0.27222 0.465934,-0.38471 -0.06952,-0.11249 0.07317,-0.36684 0.317097,-0.56523 0.387327,-0.31502 0.421522,-0.30206 0.269974,0.10231 -0.226063,0.60321 -0.117156,0.58412 0.489039,-0.0857 0.273132,-0.3018 0.380882,-0.52583 0.239445,-0.49783 -0.688662,0.13632 -0.68909,-0.0785 -0.0016,-0.7961 0.413296,-0.43139 0.870686,-0.71065 1.016423,-0.62058 0.145737,0.0901 0.188297,0.0397 0.09458,-0.11194 -0.09372,-0.15164 0.297447,-0.79512 0.869257,-1.42995 1.064521,-1.18184 1.340797,-1.50518 2.262087,-2.64747 0.696183,-0.86318 -1.820513,1.73984 -4.543537,4.69939 -2.8062,3.04994 -4.053977,4.63581 -4.034945,5.12822 0.0094,0.24428 0.125735,0.16798 0.302447,-0.19843 0.15791,-0.32743 0.393196,-0.59532 0.522858,-0.59532 z m 0.453345,-0.81311 c 0.651512,-0.54245 1.332098,-0.33457 0.946623,0.28914 -0.1475,0.23866 -0.25675,0.22813 -0.446881,-0.0431 -0.195652,-0.27909 -0.281517,-0.28538 -0.385851,-0.0283 -0.07381,0.1819 -0.273103,0.32677 -0.442878,0.32193 -0.169774,-0.005 -0.02173,-0.24772 0.328987,-0.53973 z m -13.469958,1.05631 c 0.310682,-0.21751 0.267586,-0.24149 -0.198438,-0.11041 -0.477263,0.13425 -0.595312,0.0606 -0.595312,-0.37124 0,-0.39339 0.124889,-0.49851 0.463021,-0.38974 0.355744,0.11444 0.379159,0.0891 0.101062,-0.10937 -0.199078,-0.14207 -0.465145,-0.42119 -0.591261,-0.62027 -0.150404,-0.23741 -0.230696,0.0249 -0.233354,0.76252 -0.0042,1.15875 0.277223,1.38256 1.054282,0.83851 z m 0.79375,-2.49215 c 0,-1.14675 -0.292246,-1.52344 -0.686724,-0.88517 -0.116967,0.18926 -0.07258,0.23365 0.116677,0.11668 0.209678,-0.12959 0.305464,0.11537 0.305464,0.78118 0,0.76791 -0.08553,0.93714 -0.410617,0.81239 -0.23546,-0.0904 -0.341663,-0.046 -0.248969,0.10399 0.08891,0.14385 0.333216,0.26155 0.542909,0.26155 0.275475,0 0.38126,-0.33035 0.38126,-1.19062 z m 15.503263,0.0913 0.504028,-0.57012 -0.727604,0.46826 c -0.750243,0.48283 -0.892119,0.67198 -0.504028,0.67198 0.122967,0 0.450388,-0.25655 0.727604,-0.57012 z m -16.998334,-0.61203 c 0.08197,-0.21362 0.0599,-0.44349 -0.04906,-0.51083 -0.108957,-0.0673 -0.21542,0.10744 -0.236584,0.3884 -0.04577,0.60763 0.07894,0.66109 0.285645,0.12243 z m 0.613126,-1.59597 c 0,-0.15592 -0.218281,-0.28348 -0.485069,-0.28348 -0.266788,0 -0.485069,0.12756 -0.485069,0.28348 0,0.15591 0.218281,0.28348 0.485069,0.28348 0.266788,0 0.485069,-0.12757 0.485069,-0.28348 z m 18.547625,-0.13229 c 0.181758,-0.29104 0.288383,-0.52917 0.236943,-0.52917 -0.05144,0 -0.309027,0.23813 -0.572416,0.52917 -0.263389,0.29104 -0.370013,0.52916 -0.236943,0.52916 0.13307,0 0.390657,-0.23812 0.572416,-0.52916 z m -17.66568,0 c 0,-0.14552 -0.0525,-0.26459 -0.116677,-0.26459 -0.06417,0 -0.190261,0.11907 -0.280198,0.26459 -0.08994,0.14552 -0.03743,0.26458 0.116677,0.26458 0.154109,0 0.280198,-0.11906 0.280198,-0.26458 z m -1.510837,-1.05834 c 0.07611,-0.29104 0.03046,-0.52916 -0.101433,-0.52916 -0.131897,0 -0.239813,0.23812 -0.239813,0.52916 0,0.29105 0.04564,0.52917 0.101433,0.52917 0.05579,0 0.163704,-0.23812 0.239813,-0.52917 z m 1.489949,-0.85989 c -0.01149,-0.76399 -0.08094,-1.24024 -0.154341,-1.05833 -0.0734,0.1819 -0.255331,0.33072 -0.404294,0.33072 -0.148963,0 -0.204636,-0.17253 -0.123717,-0.3834 0.103308,-0.26921 0.02002,-0.33462 -0.27968,-0.21962 -0.307196,0.11789 -0.366111,0.0656 -0.210228,-0.18664 0.153721,-0.24873 0.115321,-0.28785 -0.132313,-0.1348 -0.264905,0.16372 -0.172394,0.36743 0.384312,0.84629 0.570847,0.49102 0.707784,0.80385 0.618416,1.41276 -0.06313,0.43014 -0.01634,0.78208 0.103973,0.78208 0.120318,0 0.20936,-0.62508 0.197872,-1.38906 z m 19.33547,0.19844 c 0.493655,-0.50933 0.832326,-0.92605 0.752602,-0.92605 -0.183621,0 -1.810935,1.54748 -1.810935,1.7221 0,0.24926 0.166706,0.12387 1.058333,-0.79605 z m -20.809653,-0.5207 c 0.08197,-0.21362 0.03518,-0.45877 -0.103984,-0.54478 -0.139166,-0.086 -0.253028,0.0888 -0.253028,0.3884 0,0.63886 0.147137,0.70331 0.357012,0.15638 z m 22.56433,-1.27625 c 0.823238,-0.9468 0.915384,-1.17985 0.525647,-1.32941 -0.223553,-0.0858 -0.349723,0.0303 -0.329209,0.30301 0.01829,0.24315 -0.124418,0.40938 -0.317135,0.36939 -0.192718,-0.04 -0.274988,0.0493 -0.182823,0.19844 0.09216,0.14913 0.05422,0.27114 -0.08432,0.27114 -0.13854,0 -0.320423,0.17859 -0.404186,0.39688 -0.226735,0.59086 0.192578,0.47998 0.792024,-0.20945 z m -21.069259,-0.31972 c 0,-0.21828 -0.183288,-0.39688 -0.407307,-0.39688 -0.336523,0 -0.348018,0.0672 -0.06615,0.38682 0.433699,0.49173 0.473453,0.49257 0.473453,0.0101 z m -1.455208,-0.13229 c 0.08994,-0.14552 0.03743,-0.26459 -0.116677,-0.26459 -0.154109,0 -0.280198,0.11907 -0.280198,0.26459 0,0.14552 0.0525,0.26458 0.116676,0.26458 0.06417,0 0.190262,-0.11906 0.280199,-0.26458 z m 1.38355,-0.9536 c -0.08792,-0.0879 -0.316122,-0.0973 -0.507118,-0.0209 -0.211067,0.0845 -0.148372,0.14715 0.159852,0.15985 0.278915,0.0115 0.435185,-0.051 0.347266,-0.13896 z m 22.718797,-0.4102 c 0.116967,-0.18926 0.07258,-0.23364 -0.116677,-0.11668 -0.168005,0.10384 -0.305463,0.0627 -0.305463,-0.0914 0,-0.15411 -0.133641,-0.2802 -0.29698,-0.2802 -0.205187,0 -0.195173,0.12268 0.0324,0.39688 0.395885,0.47701 0.444417,0.48347 0.686724,0.0914 z M 31.94063,123.37309 c -0.483517,-0.30663 -0.286436,-1.66022 0.323353,-2.22086 0.277992,-0.25559 0.575648,-0.38812 0.661459,-0.29451 0.08581,0.0936 0.0072,0.22335 -0.174711,0.28831 -0.449981,0.16071 -0.416578,0.51363 0.06615,0.69887 0.299071,0.11476 0.396875,-0.0457 0.396875,-0.65098 0,-0.68915 -0.07699,-0.77884 -0.541864,-0.6313 -0.298024,0.0946 -0.714743,0.0285 -0.926041,-0.14686 -0.271075,-0.22497 -0.384178,-0.2314 -0.384178,-0.0219 0,0.16334 0.133641,0.29698 0.29698,0.29698 0.199728,0 0.21192,0.10831 0.03723,0.33073 -0.142863,0.1819 -0.275647,0.83675 -0.295076,1.45521 -0.02851,0.90768 0.05358,1.1237 0.425791,1.12043 0.347504,-0.003 0.375601,-0.0583 0.114036,-0.22416 z m 1.254526,-0.49939 c -0.01623,-0.6352 -0.04563,-0.6604 -0.231476,-0.19844 -0.117084,0.29104 -0.16122,0.61846 -0.09808,0.7276 0.224119,0.38741 0.347902,0.18865 0.329556,-0.52916 z m 23.23027,0.0386 c -0.08792,-0.0879 -0.316122,-0.0973 -0.507118,-0.0209 -0.211067,0.0845 -0.148372,0.14716 0.159852,0.15986 0.278915,0.0115 0.435185,-0.051 0.347266,-0.13897 z m -23.740841,-0.36931 c 0,-0.14552 -0.178594,-0.26459 -0.396875,-0.26459 -0.218281,0 -0.396875,0.11907 -0.396875,0.26459 0,0.14552 0.178594,0.26458 0.396875,0.26458 0.218281,0 0.396875,-0.11906 0.396875,-0.26458 z m 24.587782,-0.37463 c 0.248791,-0.29977 0.198417,-0.41032 -0.252125,-0.55332 -0.30967,-0.0983 -0.633439,-0.1083 -0.719486,-0.0222 -0.08605,0.0861 0.04199,0.15645 0.284522,0.15645 0.242535,0 0.440973,0.13295 0.440973,0.29544 0,0.16525 -0.233352,0.23442 -0.529532,0.15697 -0.291243,-0.0762 -0.46281,-0.0305 -0.38126,0.10143 0.221174,0.35787 0.80447,0.28995 1.156908,-0.13472 z m -0.117788,-2.23107 c -0.07058,-0.0706 -0.158094,-0.0781 -0.194474,-0.0168 -0.03638,0.0614 -0.423084,0.52768 -0.859341,1.03628 l -0.793196,0.92472 0.987669,-0.90796 c 0.543219,-0.49937 0.929922,-0.9657 0.859342,-1.03628 z m 1.343524,0.68747 0.777106,-0.8599 -0.859896,0.77711 c -0.801543,0.72437 -0.981512,0.94268 -0.777105,0.94268 0.04553,0 0.432488,-0.38695 0.859895,-0.85989 z m -25.284351,-0.72761 c 0,-0.14552 -0.0893,-0.27369 -0.198438,-0.28482 -0.10914,-0.0111 -0.406796,-0.0601 -0.661458,-0.10888 -0.254661,-0.0487 -0.463021,0.0112 -0.463021,0.13313 0,0.19226 0.450039,0.39015 1.124479,0.49447 0.109141,0.0169 0.198438,-0.0884 0.198438,-0.2339 z m -1.676855,-0.85989 c -0.0734,-0.1819 -0.133452,-0.0331 -0.133452,0.33073 0,0.3638 0.06005,0.51263 0.133452,0.33073 0.0734,-0.1819 0.0734,-0.47956 0,-0.66146 z m 27.899629,-0.99219 c 0.146733,0 0.203037,-0.10315 0.12512,-0.22922 -0.07792,-0.12607 0.08319,-0.43272 0.358014,-0.68143 0.472272,-0.4274 0.507272,-0.42571 0.63806,0.0308 0.107216,0.37422 0.127347,0.35525 0.08939,-0.0842 -0.05828,-0.67486 1.487334,-2.68881 2.29361,-2.98859 0.649489,-0.24148 1.29739,-0.0757 1.079852,0.27624 -0.260316,0.4212 0.0542,0.25146 0.55077,-0.29725 0.472017,-0.52157 0.469007,-0.53243 -0.128264,-0.46302 -0.94839,0.11023 -0.910773,-0.44482 0.05378,-0.79361 0.475069,-0.17179 0.964186,-0.30378 1.086927,-0.29333 0.122741,0.0105 0.574604,-0.31768 1.004141,-0.7292 0.691356,-0.66236 0.732504,-0.78367 0.358572,-1.05709 -0.584646,-0.42751 -1.606728,0.11512 -2.928211,1.55458 -0.571405,0.62242 -2.259308,2.45538 -3.750897,4.07325 -1.491588,1.61787 -2.711428,3.04515 -2.710754,3.17174 6.73e-4,0.12659 0.363895,-0.15679 0.80716,-0.62973 0.443265,-0.47295 0.925991,-0.8599 1.072724,-0.8599 z m 5.007708,-5.83048 c 0.29635,-0.29635 0.652173,-0.46876 0.790719,-0.38314 0.139191,0.086 0.1814,-0.028 0.09433,-0.25493 -0.189361,-0.49346 0.192089,-0.53995 0.655555,-0.0799 0.26714,0.26518 0.298238,0.23896 0.156901,-0.13229 -0.135237,-0.35522 -0.03895,-0.46302 0.413596,-0.46302 0.49635,0 0.537245,0.0634 0.257938,0.39996 -0.27106,0.3266 -2.448427,1.45213 -2.809202,1.45213 -0.05426,0 0.14381,-0.24247 0.440159,-0.53882 z m -4.602061,7.02111 c 0.496488,-0.49649 0.169259,-0.49649 -0.699256,0 -0.530834,0.30345 -0.566289,0.37997 -0.179539,0.3875 0.265056,0.005 0.660514,-0.16922 0.878795,-0.3875 z M 33.195156,118.1112 c -0.01225,-0.82777 -0.08522,-1.08715 -0.213787,-0.75987 -0.185669,0.47267 -0.08605,2.01664 0.130121,2.01664 0.05624,0 0.09389,-0.56555 0.08367,-1.25677 z m -0.576752,0.30864 c -0.252137,-0.25213 -0.757633,0.15626 -0.56973,0.4603 0.111686,0.18071 0.259679,0.17614 0.449698,-0.0139 0.155775,-0.15578 0.209789,-0.35667 0.120032,-0.44643 z m 28.905763,-1.36257 c 0,-0.2015 0.110836,-0.29786 0.246301,-0.21414 0.135466,0.0837 0.314627,0.0417 0.398135,-0.0935 0.08351,-0.13512 -0.04185,-0.21725 -0.278576,-0.1825 -0.236725,0.0347 -0.584833,0.35171 -0.773573,0.70437 -0.18874,0.35267 -0.471873,0.65609 -0.629184,0.67428 -0.541648,0.0626 -0.581291,0.1001 -0.406014,0.3837 0.215336,0.34842 1.442911,-0.73397 1.442911,-1.27226 z m -29.368748,0.7232 c 0,-0.14552 -0.20836,-0.26276 -0.463021,-0.26053 -0.395697,0.003 -0.405315,0.0413 -0.06615,0.26053 0.499325,0.32269 0.529167,0.32269 0.529167,0 z m 0.977103,-2.04549 c -0.06708,-0.25743 -0.126381,-0.11087 -0.131773,0.3257 -0.0054,0.43656 0.04949,0.64718 0.121969,0.46805 0.07248,-0.17913 0.07689,-0.53632 0.0098,-0.79375 z m -0.895823,-0.15372 c -0.08199,-0.13266 0.01501,-0.34513 0.215552,-0.47215 0.292356,-0.18518 0.277224,-0.23176 -0.07635,-0.23501 -0.242535,-0.002 -0.501026,0.14478 -0.574425,0.32668 -0.104467,0.2589 -0.137988,0.25705 -0.15434,-0.009 -0.01149,-0.18659 0.240865,-0.43608 0.560787,-0.55443 0.560159,-0.20721 0.554881,-0.22029 -0.142687,-0.35364 -0.704367,-0.13465 -0.722749,-0.10733 -0.665962,0.98971 0.05193,1.00318 0.109817,1.09608 0.522448,0.83838 0.255226,-0.15939 0.396964,-0.39834 0.314973,-0.53101 z m 31.023038,-0.1159 c 0.441128,-0.67784 0.44183,-0.70162 0.01026,-0.34774 -0.368551,0.30221 -0.505687,0.3112 -0.670847,0.044 -0.159534,-0.25813 -0.244828,-0.23887 -0.368405,0.0832 -0.09225,0.2404 -0.02334,0.42079 0.161617,0.42311 0.203918,0.003 0.176554,0.0983 -0.07445,0.26054 -0.34492,0.2229 -0.340244,0.25701 0.03572,0.26053 0.237925,0.002 0.645672,-0.32337 0.906104,-0.72356 z M 33.2097,114.01016 c -0.0024,-0.67449 -0.08961,-0.98967 -0.217856,-0.7876 -0.201222,0.31706 -0.101415,1.91208 0.119646,1.91208 0.05624,0 0.100439,-0.50602 0.09821,-1.12448 z m -1.109996,-0.56755 c -0.351955,-0.38078 -0.738035,-0.31793 -0.738035,0.12014 0,0.13693 0.242819,0.24897 0.539598,0.24897 0.448245,0 0.48184,-0.0625 0.198437,-0.36911 z m 0.35499,-0.51513 c -0.162076,-0.19529 -0.217375,-0.43238 -0.122887,-0.52687 0.09449,-0.0945 0.331581,-0.0392 0.526872,0.12288 0.274539,0.22785 0.355073,0.18733 0.355073,-0.17868 0,-0.26035 -0.07834,-0.39503 -0.174094,-0.29928 -0.09575,0.0958 -0.333876,0.0415 -0.529166,-0.12059 -0.272228,-0.22593 -0.355073,-0.19452 -0.355073,0.13459 0,0.2361 -0.119063,0.42927 -0.264584,0.42927 -0.477478,0 -0.276848,-0.83035 0.330729,-1.3688 0.414757,-0.36756 0.461522,-0.4858 0.154189,-0.38984 -0.422681,0.13197 -0.922008,-0.5383 -0.623437,-0.83687 0.07618,-0.0762 0.138519,3.9e-4 0.138519,0.17016 0,0.16978 0.131801,0.30869 0.292891,0.30869 0.16109,0 0.224358,-0.1786 0.140596,-0.39688 -0.103591,-0.26995 0.01428,-0.39687 0.368567,-0.39687 0.474889,0 0.519221,-0.18099 0.502267,-2.05053 -0.01179,-1.30051 -0.09563,-1.85697 -0.229196,-1.52135 -0.11583,0.29104 -0.154572,1.13711 -0.08609,1.88015 0.111019,1.20462 0.06419,1.36676 -0.432262,1.49659 -0.675057,0.17653 -0.733583,-0.19686 -0.09375,-0.5981 0.391701,-0.24564 0.36622,-0.26368 -0.165425,-0.11709 -0.426331,0.11754 -0.570222,0.0791 -0.447406,-0.11966 0.09957,-0.16111 0.336096,-0.29293 0.52561,-0.29293 0.518837,0 0.184068,-1.31894 -0.340498,-1.34151 -0.334401,-0.0144 -0.312458,-0.0701 0.09699,-0.24599 l 0.529167,-0.22739 -0.529167,-0.0245 c -0.512588,-0.0237 -0.511094,-0.0388 0.04768,-0.48162 0.471778,-0.37387 0.513057,-0.51448 0.226631,-0.77196 -0.19262,-0.17315 -0.434948,-0.23269 -0.538508,-0.13229 -0.10356,0.10039 -0.0048,-0.26019 0.21939,-0.80128 0.395617,-0.9547 0.392525,-0.97435 -0.104485,-0.66396 -0.66815,0.41726 -0.704791,1.76729 -0.04915,1.81075 0.440973,0.0292 0.440973,0.0365 0,0.1517 -0.344816,0.0901 -0.46302,0.3945 -0.46302,1.19233 0,0.92229 0.05521,1.02551 0.396875,0.74195 0.325042,-0.26976 0.396875,-0.25168 0.396875,0.0999 0,0.2361 -0.157729,0.42928 -0.350509,0.42928 -0.262094,0 -0.358081,0.58661 -0.380525,2.32555 -0.02767,2.14343 0.01532,2.34808 0.548946,2.61334 0.800677,0.39801 0.813542,0.39795 0.481363,-0.002 z m 0.759058,-2.15847 c 0,-0.50932 -0.0465,-0.92604 -0.103345,-0.92604 -0.05684,0 -0.151994,0.41672 -0.211455,0.92604 -0.05946,0.50932 -0.01295,0.92604 0.103345,0.92604 0.1163,0 0.211455,-0.41672 0.211455,-0.92604 z m 33.083309,-0.54169 c 0.194098,-0.23387 0.407221,-0.30026 0.497093,-0.15485 0.09285,0.15024 0.37349,0.09 0.684814,-0.14713 0.516589,-0.39338 0.515187,-0.39802 -0.06782,-0.2242 -0.722773,0.21549 -0.738745,0.12359 -0.105431,-0.60663 0.269435,-0.31066 0.58618,-0.4777 0.703878,-0.37121 0.117698,0.1065 0.133918,0.0538 0.03605,-0.11708 -0.102656,-0.17924 0.01933,-0.35047 0.28831,-0.40469 0.377689,-0.0761 0.39087,-0.12011 0.06938,-0.23152 -0.247347,-0.0857 -0.885409,0.39073 -1.693536,1.26459 -0.713164,0.77116 -1.174227,1.40212 -1.024584,1.40212 0.149642,0 0.424974,-0.18423 0.611848,-0.4094 z m 1.577106,0.14482 c 0,-0.14553 -0.0525,-0.26459 -0.116677,-0.26459 -0.06417,0 -0.190261,0.11906 -0.280198,0.26459 -0.08994,0.14552 -0.03743,0.26458 0.116676,0.26458 0.154109,0 0.280199,-0.11906 0.280199,-0.26458 z m 0.661458,-0.52917 c 0.08994,-0.14552 0.03743,-0.26458 -0.116677,-0.26458 -0.154109,0 -0.280198,0.11906 -0.280198,0.26458 0,0.14552 0.0525,0.26458 0.116677,0.26458 0.06417,0 0.190261,-0.11906 0.280198,-0.26458 z m 1.043083,-1.29824 c 0.08155,-0.13195 -0.09002,-0.1776 -0.38126,-0.10144 -0.617798,0.16156 -0.695893,0.34135 -0.148271,0.34135 0.209693,0 0.447982,-0.10796 0.529531,-0.23991 z m -0.381625,-1.42697 c 0,-0.60141 0.578194,-1.00306 0.972663,-0.67568 0.232185,0.19269 0.350254,0.198 0.350254,0.0157 0,-0.15121 -0.148828,-0.33498 -0.330729,-0.40838 -0.197576,-0.0797 -0.144314,-0.14186 0.132291,-0.15434 0.254662,-0.0115 0.448922,-0.11019 0.431689,-0.21933 -0.08417,-0.53308 0.07294,-0.62747 0.494353,-0.29698 0.416099,0.32633 0.427542,0.3178 0.112919,-0.0842 -0.306978,-0.39223 -0.216575,-0.54405 0.733946,-1.23261 0.596227,-0.4319 0.950498,-0.8298 0.78727,-0.88421 -0.163229,-0.0544 0.247976,-0.60106 0.913787,-1.21478 0.665812,-0.61373 1.089387,-1.11586 0.941279,-1.11586 -0.382433,0 -2.353417,2.18549 -2.197908,2.4371 0.07095,0.1148 -0.04798,0.20873 -0.264287,0.20873 -0.216308,0 -0.649765,0.32742 -0.963239,0.7276 -0.313474,0.40019 -1.104158,1.29315 -1.757074,1.98438 -0.768164,0.81323 -1.040676,1.25677 -0.772168,1.25677 0.228225,0 0.414954,-0.15478 0.414954,-0.34396 z m 1.885833,-0.38365 c 0.329107,-0.41964 0.319749,-0.429 -0.0999,-0.0999 -0.440729,0.34564 -0.580887,0.56292 -0.363126,0.56292 0.05494,0 0.263301,-0.20836 0.463021,-0.46303 z m 1.536475,-1.50053 c 0.25597,-0.30843 0.214746,-0.3506 -0.229211,-0.23451 -0.297721,0.0779 -0.476093,0.24709 -0.396381,0.37606 0.193879,0.31371 0.260218,0.2987 0.625592,-0.14155 z M 33.213752,104.608 c 0,-0.11434 -0.229384,-0.20789 -0.509741,-0.20789 -0.280358,0 -0.451925,0.0936 -0.38126,0.20789 0.07066,0.11434 0.300048,0.20789 0.509741,0.20789 0.209693,0 0.38126,-0.0935 0.38126,-0.20789 z m 39.297624,-0.27018 c -0.08146,-0.0815 -0.294956,-1.7e-4 -0.474432,0.18065 -0.259362,0.26131 -0.228971,0.2917 0.148113,0.14811 0.260937,-0.0994 0.407781,-0.2473 0.326319,-0.32876 z m 1.111966,-0.21095 c -0.08792,-0.0879 -0.316122,-0.0973 -0.507118,-0.0209 -0.211067,0.0845 -0.148372,0.14716 0.159852,0.15985 0.278915,0.0115 0.435185,-0.051 0.347266,-0.13896 z m -40.40959,-2.5852 c 0,-1.36426 -0.07616,-2.861275 -0.169246,-3.326702 -0.148867,-0.744333 -0.25241,-0.829229 -0.859896,-0.705032 -0.379857,0.07766 -0.541822,0.07647 -0.359921,-0.0026 0.181901,-0.07911 0.33073,-0.252981 0.33073,-0.386375 0,-0.133394 -0.148829,-0.212769 -0.33073,-0.176389 -0.188655,0.03773 -0.322311,-0.183936 -0.311134,-0.516012 0.01078,-0.320186 -0.07472,-0.523869 -0.189987,-0.452628 -0.306704,0.189553 0.06138,4.175928 0.406393,4.401258 0.162854,0.10636 0.331468,0.0167 0.379336,-0.20168 0.04739,-0.21623 0.198164,-0.32393 0.335045,-0.239333 0.136881,0.08459 0.180375,0.264653 0.09665,0.400113 -0.08372,0.13547 -0.02776,0.2463 0.124348,0.2463 0.171343,0 0.249354,0.65434 0.205037,1.71979 -0.03934,0.94589 0.02182,1.7198 0.135919,1.7198 0.1141,0 0.207454,-1.11622 0.207454,-2.48047 z m -1.5875,-2.055289 c 0,-0.248737 0.609033,-0.431665 0.992187,-0.298013 0.559516,0.195171 0.36667,0.468143 -0.330729,0.468143 -0.363802,0 -0.661458,-0.07656 -0.661458,-0.17013 z m 0.37756,-1.423051 c 0.280419,-0.212149 0.574627,-0.320952 0.653796,-0.241782 0.166077,0.166076 -0.505909,0.638355 -0.899064,0.631872 -0.145521,-0.0024 -0.03515,-0.17794 0.245268,-0.39009 z m 42.2865,4.98983 c -0.181901,-0.0734 -0.479557,-0.0734 -0.661458,0 -0.181901,0.0734 -0.03307,0.13345 0.330729,0.13345 0.363802,0 0.51263,-0.0601 0.330729,-0.13345 z m -42.036686,-1.44511 c -0.790827,-0.31077 -0.98083,-0.26076 -0.627374,0.16513 0.227569,0.2742 0.237583,0.39687 0.0324,0.39687 -0.163339,0 -0.29698,0.12181 -0.29698,0.27069 0,0.14887 0.312083,0.0662 0.693519,-0.18373 0.63666,-0.41716 0.65293,-0.47037 0.198438,-0.64896 z m 43.624186,-1.20073 c -0.181901,-0.0734 -0.479557,-0.0734 -0.661458,0 -0.181901,0.0734 -0.03307,0.13346 0.330729,0.13346 0.363802,0 0.51263,-0.0601 0.330729,-0.13346 z m 0.507298,-0.432876 c -0.211875,-0.255293 -0.128381,-0.52591 0.325079,-1.053635 0.335599,-0.39056 0.67851,-0.641779 0.762025,-0.558264 0.08352,0.08352 0.369136,0.01619 0.634712,-0.149623 0.420904,-0.262785 0.397987,-0.281115 -0.178593,-0.142845 -0.604214,0.144897 -0.621387,0.126293 -0.198438,-0.214972 0.254662,-0.205479 0.463021,-0.5093 0.463021,-0.675158 0,-0.165859 0.304683,-0.301561 0.677073,-0.301561 0.372391,0 0.610043,-0.108458 0.528116,-0.241018 -0.310455,-0.502328 -0.96686,-0.0713 -2.581159,1.694929 -0.916706,1.00298 -1.462192,1.746203 -1.21219,1.651608 0.250001,-0.09459 0.524918,-0.05813 0.610927,0.08104 0.08601,0.13917 0.223463,0.25303 0.305453,0.25303 0.08199,0 0.02078,-0.15459 -0.136026,-0.343526 z m 2.077416,-1.11774 c 0.279608,-0.336906 0.263239,-0.375623 -0.0999,-0.236276 -0.238864,0.09166 -0.434298,0.27298 -0.434298,0.402932 0,0.340243 0.15316,0.292461 0.534193,-0.166656 z m 1.185598,-1.449151 c 0.08994,-0.145521 0.03743,-0.264584 -0.116676,-0.264584 -0.154109,0 -0.280199,0.119063 -0.280199,0.264584 0,0.145521 0.0525,0.264583 0.116677,0.264583 0.06417,0 0.190262,-0.119062 0.280198,-0.264583 z M 32.949169,96.878386 c 0,-0.145521 -0.0525,-0.264583 -0.116677,-0.264583 -0.06417,0 -0.190262,0.119062 -0.280198,0.264583 -0.08994,0.145521 -0.03743,0.264583 0.116676,0.264583 0.154109,0 0.280199,-0.119062 0.280199,-0.264583 z m 47.757289,-0.79375 c 0.08994,-0.145521 0.04446,-0.264583 -0.101062,-0.264583 -0.145521,0 -0.338168,0.119062 -0.428105,0.264583 -0.08994,0.145521 -0.04446,0.264583 0.101062,0.264583 0.145521,0 0.338168,-0.119062 0.428105,-0.264583 z m -1.092239,-0.419563 c 0.164169,0.03754 0.209192,0.01831 0.100051,-0.04272 -0.528265,-0.295434 -0.10586,-0.532557 0.592101,-0.332384 0.722282,0.207148 0.82364,0.154153 1.173931,-0.613782 1.017265,-2.230131 1.224825,-4.657996 0.416781,-4.875168 -0.326309,-0.0877 -0.332043,-0.0613 -0.03225,0.14848 0.571829,0.400135 0.109406,0.903386 -0.520386,0.566332 -0.286286,-0.153216 -0.450627,-0.391663 -0.365203,-0.529882 0.08543,-0.13822 0.04489,-0.251309 -0.09008,-0.251309 -0.134969,0 -0.251301,0.656971 -0.258516,1.459935 -0.01048,1.166755 -0.208299,1.817633 -0.985049,3.241146 -0.534561,0.979666 -0.827466,1.641687 -0.6509,1.471157 0.176567,-0.170529 0.45535,-0.279339 0.619518,-0.241801 z m 0.43078,-1.006334 c 0,-0.202159 0.213402,-0.631102 0.474225,-0.953206 0.449344,-0.554916 0.49446,-0.561138 0.859896,-0.118576 0.295976,0.358441 0.308753,0.492954 0.05494,0.57838 -0.181901,0.06122 -0.330729,0.279985 -0.330729,0.486139 0,0.206155 -0.238125,0.374827 -0.529167,0.374827 -0.291042,0 -0.529167,-0.165404 -0.529167,-0.367564 z m 0.926042,-0.690769 c 0.08994,-0.145521 0.03743,-0.264584 -0.116677,-0.264584 -0.154109,0 -0.280198,0.119063 -0.280198,0.264584 0,0.14552 0.0525,0.264583 0.116677,0.264583 0.06417,0 0.190261,-0.119063 0.280198,-0.264583 z m 0.396875,-1.058334 c -0.209853,-0.129696 -0.322019,-0.295342 -0.249258,-0.368102 0.07276,-0.07276 0.303989,-0.02618 0.513841,0.103519 0.209853,0.129696 0.322019,0.295342 0.249259,0.368103 -0.07276,0.07276 -0.303989,0.02618 -0.513842,-0.10352 z m -50.318694,1.822502 c -0.156483,-0.09671 -0.207787,-0.299986 -0.11401,-0.451722 0.09378,-0.151735 0.0495,-0.350667 -0.09839,-0.442071 -0.304263,-0.188044 -0.33983,0.234604 -0.09629,1.144178 0.12025,0.449106 0.223765,0.52322 0.379296,0.271567 0.120921,-0.195656 0.09023,-0.422551 -0.07061,-0.521952 z m -0.681389,-7.289946 c -0.182808,-0.0737 -0.253709,-0.261291 -0.157557,-0.416867 0.107293,-0.173605 0.04882,-0.204996 -0.151372,-0.08127 -0.179405,0.110879 -0.644286,0.297635 -1.033068,0.415014 -0.601255,0.181527 -0.528974,0.213692 0.483749,0.215269 0.654844,0.001 1.041055,-0.05845 0.858248,-0.132148 z m 2.150286,-0.03351 c 0.07114,-0.115109 -0.27902,-0.161614 -0.778135,-0.103345 -0.499115,0.05827 -0.907482,0.152449 -0.907482,0.209288 0,0.19912 1.557581,0.101224 1.685617,-0.105943 z m 2.476058,0.04944 c -0.08792,-0.08792 -0.316122,-0.09732 -0.507118,-0.02089 -0.211067,0.08446 -0.148372,0.147157 0.159852,0.159853 0.278915,0.01149 0.435185,-0.05105 0.347266,-0.138965 z m 1.465756,-0.0137 c -0.179131,-0.07248 -0.536319,-0.07689 -0.79375,-0.0098 -0.257431,0.06708 -0.110869,0.126382 0.325694,0.131774 0.436562,0.0054 0.647188,-0.04949 0.468056,-0.12197 z m 1.251735,0.06957 c 0,-0.05719 -0.184777,-0.17489 -0.410617,-0.261553 -0.235459,-0.09035 -0.341662,-0.046 -0.248968,0.103984 0.155379,0.251408 0.659585,0.371858 0.659585,0.157569 z m 1.918229,-0.08274 c -0.327422,-0.06307 -0.863203,-0.06307 -1.190625,0 -0.327421,0.06306 -0.05953,0.114662 0.595313,0.114662 0.654844,0 0.922734,-0.0516 0.595312,-0.114662 z m 1.984375,0.0043 c -0.254661,-0.06655 -0.67138,-0.06655 -0.926041,0 -0.254662,0.06655 -0.0463,0.121 0.46302,0.121 0.509323,0 0.717683,-0.05445 0.463021,-0.121 z m 1.846571,0.02253 c -0.08792,-0.08792 -0.316122,-0.09732 -0.507118,-0.02089 -0.211066,0.08446 -0.148372,0.147157 0.159853,0.159853 0.278915,0.01149 0.435184,-0.05105 0.347265,-0.138965 z m 2.788673,-0.0137 c -0.179132,-0.07248 -0.536319,-0.07689 -0.79375,-0.0098 -0.257431,0.06708 -0.110869,0.126382 0.325694,0.131774 0.436562,0.0054 0.647187,-0.04949 0.468056,-0.12197 z m 1.5875,0 c -0.179132,-0.07248 -0.536319,-0.07689 -0.79375,-0.0098 -0.257431,0.06708 -0.110869,0.126382 0.325693,0.131774 0.436563,0.0054 0.647188,-0.04949 0.468057,-0.12197 z m 41.600691,-0.09103 c -0.08994,-0.145521 -0.305323,-0.262761 -0.478635,-0.260532 -0.18934,0.0024 -0.156707,0.106422 0.08176,0.260532 0.508297,0.328486 0.599891,0.328486 0.396875,0 z M 26.136148,87.178158 c -0.181901,-0.0734 -0.479557,-0.0734 -0.661458,0 -0.181901,0.0734 -0.03307,0.133452 0.330729,0.133452 0.363802,0 0.51263,-0.06005 0.330729,-0.133452 z m -2.579687,-0.47366 -0.79375,-0.360438 0.99337,0.01841 c 0.546353,0.01013 1.05923,-0.04745 1.139727,-0.127947 0.0805,-0.0805 -0.84277,-0.143753 -2.051703,-0.140569 l -2.198061,0.0058 1.279168,0.340538 c 0.703543,0.187296 1.348465,0.409834 1.43316,0.49453 0.08469,0.0847 0.342507,0.148621 0.572915,0.142057 0.230408,-0.0066 0.06174,-0.17413 -0.374826,-0.372371 z m 55.430205,-0.02443 c 0,-0.04815 -0.208359,-0.07904 -0.463021,-0.06866 -0.254661,0.01039 -0.701145,-0.06477 -0.992187,-0.16701 -0.350718,-0.123205 -0.310602,-0.05553 0.118961,0.200687 0.544249,0.324619 1.336247,0.345353 1.336247,0.03498 z m 12.170833,0.144156 c 0,-0.145521 -0.20836,-0.26276 -0.463021,-0.260532 -0.395697,0.0035 -0.405315,0.04134 -0.06615,0.260532 0.499325,0.322689 0.529167,0.322689 0.529167,0 z M 93.5167,86.654479 c 0.25685,-0.220968 -1.468538,-0.06418 -1.830035,0.166294 -0.270268,0.172313 -0.05926,0.201276 0.661459,0.09079 0.582083,-0.08923 1.107942,-0.204921 1.168576,-0.257084 z M 28.676542,86.341068 c 1.354498,0 2.532608,-0.06989 2.618022,-0.155299 0.08541,-0.08541 -1.21392,-0.155299 -2.887409,-0.155299 -2.477726,0 -3.042708,0.07104 -3.042708,0.382584 0,0.269221 0.125838,0.315237 0.424686,0.155299 0.233577,-0.125007 1.532911,-0.227285 2.887409,-0.227285 z m 5.860126,0.383257 c 0,-0.05494 -0.181319,-0.250376 -0.402931,-0.434298 -0.336907,-0.279608 -0.375624,-0.263239 -0.236276,0.09989 0.142318,0.370876 0.639207,0.630826 0.639207,0.334404 z m 18.785416,-0.29698 c 0.509323,-0.196139 0.747448,-0.360305 0.529167,-0.364812 -0.218281,-0.0045 -0.754063,0.155358 -1.190625,0.355257 -1.021837,0.467891 -0.54655,0.474757 0.661458,0.0096 z m 28.238757,0.237022 c -0.08792,-0.08792 -0.316122,-0.09732 -0.507118,-0.02089 -0.211066,0.08446 -0.148372,0.147157 0.159853,0.159853 0.278915,0.01149 0.435184,-0.05105 0.347265,-0.138965 z m 1.852084,0 c -0.08792,-0.08792 -0.316122,-0.09732 -0.507118,-0.02089 -0.211067,0.08446 -0.148373,0.147157 0.159852,0.159853 0.278915,0.01149 0.435184,-0.05105 0.347266,-0.138965 z m 3.704166,0 c -0.08792,-0.08792 -0.316122,-0.09732 -0.507118,-0.02089 -0.211067,0.08446 -0.148372,0.147157 0.159852,0.159853 0.278915,0.01149 0.435185,-0.05105 0.347266,-0.138965 z m 14.693529,-0.0264 c -0.32543,-0.0628 -0.92074,-0.06443 -1.32292,-0.0036 -0.40218,0.06082 -0.13593,0.112199 0.59167,0.114185 0.72761,0.002 1.05667,-0.04777 0.73125,-0.110574 z M 36.388752,86.134454 c 0,-0.05719 -0.178594,-0.103984 -0.396875,-0.103984 -0.218282,0 -0.396875,0.115326 -0.396875,0.256279 0,0.140954 0.178593,0.187747 0.396875,0.103985 0.218281,-0.08376 0.396875,-0.199089 0.396875,-0.25628 z m 6.217708,0.160599 c -0.08994,-0.145521 -0.483917,-0.250496 -0.875511,-0.233279 l -0.711989,0.0313 0.79375,0.201975 c 0.436562,0.111087 0.830542,0.216062 0.87551,0.233279 0.04497,0.01722 0.0082,-0.08776 -0.08176,-0.233279 z m 3.505729,-0.182384 c -0.254662,-0.06655 -0.67138,-0.06655 -0.926042,0 -0.254661,0.06655 -0.0463,0.121 0.463021,0.121 0.509323,0 0.717682,-0.05445 0.463021,-0.121 z"
       id="path3" /></g></svg>
